<?xml version="1.0" encoding="UTF-8"?>
<svg id="Layer_1" data-name="Layer 1" xmlns="http://www.w3.org/2000/svg" width="114" height="460" viewBox="0 0 114 460">
  <defs>
    <style>
      .cls-1 {
        fill: #fefefe;
      }

      .cls-2 {
        fill: #8dabb7;
      }

      .cls-3 {
        fill: #781411;
      }
    </style>
  </defs>
  <path class="cls-1" d="M4.87,265.18c-.64,.65-.68,1.69-.08,2.38v1.57c-.26,1.08-.44,2.17-.52,3.28-.06,15.67-.37,31.34-.93,47-.34,9.15-.54,18.33-.23,27.47,.31,9.15-1.27,17.89-.71,26.91,.46,7.36-.79,14.77-.42,22.17-.11,2.53-.2,5.05-.36,7.58,0,.53,0,1.35-.86,1.27-.56-.08-.98-.58-.6-1.35,.02,.07,.05,.14,.08,.2,1.14,1.34,1.55,3.16,1.11,4.87-.76,1.14-.81,2.63-.12,3.82l-.07,1.64c-.56,.65-.59,1.6-.08,2.29l.08,1.19-.08,.65c-.71,1.11-1.04,2.42-.94,3.74,.68,4.98,.7,10.04,1.85,14.97,2.53,10.83,8.25,18.05,19.9,20.11,9.43,1.7,18.97,2.7,28.55,3,13.1,.39,26.02-1,38.89-2.71,5.1-.69,8.74-4.25,13.1-6.4,1.17,.81,1.76-.09,2.29-.87,1.12-1.43,1.98-3.05,2.56-4.78,3.17-6.97,4.66-14.59,4.36-22.25-.3-15.16-.62-30.3,0-45.46,.41-1.26,.59-2.59,.52-3.91,.12-11.21,.32-22.41,.36-33.62v-81.23c0-9.97,.47-19.91,1.18-29.87,.67-9.47-1.76-18.73-4.36-27.83-.25-.85-.91-1.72-.48-2.57,.97-1.87-.15-2.22-1.56-2.48-.81-2.42-1.92-4.73-3.3-6.88,.37-.9-.05-1.94-.94-2.32-.07-.03-.15-.06-.22-.08-3.79-7.68-6.66-15.79-8.56-24.16-.54-5.54-1.22-11.06-1.57-16.61-.15-2.21-1.15-4.68,.94-6.66,.51-.47,0-.64-.4-.57-1.97,.32-1.15-1.22-1.22-1.99-.8-8.91-1.53-17.81-2.31-26.7-.6-6.86-1.23-13.71-1.85-20.56h0s.2-.11,.2-.15-.11-.31-.16-.46c-.06-.19-.09-.39-.11-.6,.06-.81,.06-1.62,0-2.42-1.56-13.1-2.39-26.26-3.21-39.42-.36-6.02-.25-12.18-2.21-18.04,2.29-1.68,3.33-3.72,1.82-6.5,.32-1.07-.04-2.22-.91-2.91,.97-1.54,3.58-1.69,3.29-4.36-.76-6.98-3.23-11.22-10.26-12.83-9.34-2.13-19-2.34-28.42-.6-7.2,1.27-9.79,5.28-10.51,12.3-.26,1.42,.59,2.8,1.96,3.19l.36,3.11c-.98,1.2-2.01,2.84-1.22,4.06,1.72,2.71,.86,5.26,.27,7.9-.78,1.63-1.02,3.47-.7,5.25-.43,4.25-.91,8.5-1.34,12.76-.72,8.27-1.34,16.54-2.05,24.81-.6,3.67-.85,7.39-.72,11.11-.15,.61-.31,1.22-.47,1.84l-.07,.68v1.15c-1.02,9.09-2.16,18.18-3.03,27.3-.39,4.06-1.96,8.12-.62,12.32l-.71,.83-.39,.65c-.27,6.09-1.43,12.1-1.88,18.16-.86,12.78-4.58,25.19-10.88,36.31-5.47,9.73-9.59,19.88-10.94,31.13-1.03,8.57-.63,17.09-.27,25.71,0,0-.21,.16-.2,.2,.07,.16,.15,.32,.24,.47,0,1.26,.09,2.52,.15,3.78-.82,.81-.42,1.6,.07,2.37v5.68h-.19l.17,.26v1.56c-.42,.28-.42,.57,0,.87v2.71l-.11,.14,.11,.15-.09,5.25Z"/>
  <path class="cls-2" d="M1.99,395.93c-.38-7.4,.87-14.81,.42-22.17-.56-9.01,1.01-17.91,.71-26.91s-.11-18.33,.23-27.47c.56-15.65,.87-31.31,.93-46.98,.08-1.1,.26-2.2,.52-3.28,.99-2.96,1.06-6.16,.19-9.16l-.11-.11,.11-.14c1.26-3.52,0-7.23,.79-10.83-.24-.15-.5-.28-.76-.38-.48-.77-.89-1.56-.07-2.37l.68,.84c.09-.25,.16-.51,.19-.77,.3-8.42-1.09-16.85,.27-25.23,.78-4.86,.87-10.02,4.81-13.83,.6,2.42,1.69,4.59,2.35,6.83,3.26,11.67,4.54,23.82,3.8,35.92-.41,7.74-.15,15.5,.78,23.2,12.07-14.89,26.24-24.7,46.03-22.26-3.81,.41-7.81-.43-11.6,1.35,1.49-.07,1.48,2.22,2.68,1.8,4.22-1.52,8.41,.38,12.63,0-.3-1-2.09-2.23,.71-2.29,3.3,.05,6.55,.82,9.54,2.23,10.33,4.3,17.84,11.64,23.32,21.33,1.69,2.98,3.73,5.75,5.61,8.62,.69-4.77,1.08-9.59,1.14-14.41,.17-8.88,.17-17.74,.75-26.61,.46-7.16,2.31-14.28,0-21.48-.46-1.43,.82-3.71-2.19-3.55-.35,0-.76-.62-.3-1.2,1.34-1.73-1.18-.77-1.11-1.76,1.92,.45,2.4-.53,1.77-2.08-1.77-4.34-2.39-8.97-4.75-13.29-3.94-7.23-6.71-15.09-10.96-22.24-.47-.78-.5-1.96-1.74-2.3-.24,2.18-.06,4.39,.52,6.51-3.19-1.22-3.25-1.23-2.68-4.39,.03-.58-.02-1.17-.16-1.73-.31-3.45-3.89-5.41-3.89-8.99,0,0-.15-.12-.23-.16-1.15-.53-1.65-1.89-1.13-3.05,.15-.34,.38-.64,.68-.86,2.19-1.84,1.78-4.22,1.97-6.44,.36-4.32,1.1-8.76,.51-12.97-.75-5.41-1.09-10.83-1.34-16.24-.3-5.98-.89-11.98-.97-18-.09-6.44-1.19-12.87-1.86-19.3h7.26c.62,6.85,1.25,13.7,1.85,20.56,.78,8.89,1.5,17.8,2.31,26.7,.07,.77-.75,2.31,1.22,1.99,.42,0,.91,.09,.4,.57-2.09,1.98-1.09,4.45-.94,6.66,.35,5.55,1.03,11.07,1.57,16.61v.3c-.75,4.59,.51,9.28-.83,13.85-.24,.84,.59,1.45,1.15,2.03,.92,1.21,1.99,2.3,3.16,3.26,2.07,1.26,2.45,4.25,5.11,4.78,.94,.26,1.49,1.23,1.24,2.17-.02,.07-.04,.14-.07,.21,.2,2.63,1.38,5.1,3.3,6.89,1.41,.26,2.52,.61,1.56,2.48-.43,.85,.23,1.72,.48,2.57,2.6,9.09,5.03,18.31,4.36,27.83-.71,9.96-1.19,19.9-1.18,29.87v81.23c0,11.21-.24,22.41-.36,33.62,.06,1.32-.11,2.63-.51,3.88-1.34,2.04-.82,4.48-1.34,6.7-3.62,13.53-10.31,24.92-21.69,33.46-8.89,6.66-18.51,10.42-29.62,10.3-14-.16-25.31-6.6-35.59-15.42-4.05-3.72-7.65-7.91-10.73-12.48,1.06,7.2-1.72,13.24-1.34,19.77-6.32-3.33-5.98-9.05-6.12-14.62-1.34,2.35-.19,5.1-1.78,7.24-.25-5.32-.27-10.61-.24-15.89-.24-1.19-.46-1.56-1.39-.54Zm7.78-9.04l-.21-.77-.27,.23,.51,.51v1.35c.36-.28,.42-.8,.15-1.16-.05-.06-.11-.12-.17-.17h0Zm40.51-8.12l.34,.34-.91,1.77c1.02,.51,1.96-.07,2.95,0,4.3,.42,8.65,.51,12.97,.5,.84,0,2.52,.34,2.68-1.15,.19-1.3-.7-2.51-1.99-2.71-.23-.03-.46-.03-.7,0-3.39,.49-6.71-.49-10.04-.18-1.84,.18-3.71,0-5.54,.23-.47,0-1.64,.35-1.1,1.35,.34,.58,.87-.23,1.34-.16h0Zm-1.58-69.56l-.12-.09c-3.02-1.35-2.68,1.89-4.35,2.79,2.2,.2,4.1,.43,6.02,.54s3.82,0,5.73,.08c1.9,.08,4.18,0,6.26,.14,1.64,.15,3.51,1.22,3.33-1.87-.05-.53,.34-1,.86-1.04,.11-.01,.22,0,.33,.03,.3,.2,.55,.64,.98,.23v-.28l-1.05,.09c0-.78-.17-1.27-1.19-1.29-2.84,0-5.79-.72-8.52-.18s-5.62-.27-8.29,.85h0Zm-31.62-22.71c2.78-4.68,6-9.08,9.62-13.13,6.95-7.89,16.46-13.04,26.82-14.52,23.36-3.28,41.72,12.52,48.68,31.43,.09,1.35-1.03,2.31-.83,3.97,.44,3.71-.4,7.59,.23,11.23,.48,2.86-.87,5.41-.2,8.22,.9,3.75,.31,7.66,0,11.42s1.78,7.34,.13,10.99c2.27,1.29-1.52,4.06,1.23,5.25,.01,.29-.07,.58-.23,.83-2.16,2.18-.4,3.82,.71,5.55h0c-.36,.54,0,1.35-.2,1.71-1.11,1.72-1.18,1.68-.28,3.68,.55,1.23,1.02,2.37-.67,3.28-.97,.53-1.13,1.19-.52,2.63,1.52,3.57,3.25,7.34,.59,11.29-.8,1.2,.8,3.14-.98,4.22,.87,1.22,0,2.82,.59,3.9,1.45,2.71,1.89,3.51,.78,5.48s-.42,2.6,1.53,2.61c.12,.47,.09,.87-.47,1.02-.7-.08-1.46-.09-1.76,.66s.4,.97,.91,1.25c-.02,.6-.11,1.2-.28,1.77-8.77,20.23-30.04,34.24-53.51,28.19-14.07-3.61-24.29-12.45-31.89-24.66,1.02-.41,1.05-1.35,1.19-2.25,.79-5.03-1.61-9.95-.38-15.05,.48-2.03-.35-4.36-.24-6.52,.31-6.05,.76-12.09,.59-18.15,0-.92,0-1.87,1.06-2.3,2.48,0,3.9-.53,3.26-3.68-.42-2.08-2.13-1.08-2.91-1.99-.5-.84,.24-2.71-.62-2.59-2.62,.58-1.5-1.27-1.52-2.08-.07-4.99,0-9.99,0-14.98,0-2.71,1.46-5.51-.51-8.12,2.16-3.76,1.05-7.9,1.17-11.86,.11-3.37,.67-6.77-.58-10.2-.32-.89,.91-2.22,.66-3.49s-.54-2.19-.98-3.98c-4.29,9.96-7.42,19.43-7.48,29.68,0,11.52,0,23.01-.11,34.55,.16,3.08,.16,6.17,0,9.26-.37,3.34-.43,6.72-.16,10.07,.59,5.63,1.87,11.16,3.81,16.47-.94,.78-.39,1.66-.15,2.52,1.44,4.79,3.64,9.31,6.52,13.39,3.39,4.65,7.46,8.76,12.07,12.18,5.12,3.72,11,6.24,17.21,7.38,.54,.12,1.56,0,1.34,.7-.55,2.61,1.61,2.5,2.9,2.9,3.82,.97,7.8,1.1,11.68,.39,2.4-.32,4.95-.47,7.07-1.89-.34-1.53-1.81-.61-2.45-1.35,.48-.95,1.46-.53,2.15-.88,3.61-1.85,8.52-1.73,10.1-6.77,.13-.32,.5-.48,.82-.35,.07,.03,.13,.07,.18,.12,1.78,1.35,1.82,1.35,3.54,.09,4.21-3.28,8-7.07,11.28-11.3,1.54-1.92,3.94-3.9,4.02-6.56,0-3.59,2.08-6.32,3.02-9.47,2.45-8.22,4.37-16.46,2.9-25.13l-.15-.23,.13-.23c.56-.56,.57-1.46,.01-2.03h-.01l-.13-.23,.15-.22c.64-1.39,.64-2.99,0-4.39-.75-2.92-.11-5.9-.19-8.84-.38-13.37,.38-26.77-.46-40.14,.54-.5,.75-1.26,.55-1.96-.6-5.06-2.03-9.97-2.53-15.08-.31-3.15-2.13-6-3.61-8.86-2.76-5.35-6.71-9.73-10.55-14.24-3.85-4.51-9.95-5.41-14.11-9.26-.13-.14-.38-.14-.56-.22-14.42-6.21-34.29-4.47-49.46,10.61-5.01,4.91-8.33,11.32-9.48,18.27l-.2,.11,.16-.05Zm47.31-16.97c0-1.83-.11-3.67,0-5.49s-.66-2.52-2.32-2c-2.34,.66-4.81,.7-7.16,.11-2.96-.65-3.55,.32-3.03,3.51,.5,3.13,.67,6.31,.5,9.47-.21,3.74,2.23,7.74,5.58,8.3,2.28,.38,5.06-2.46,5.9-5.98,.47-2.61,.65-5.26,.54-7.9Zm27.28,64.96l.63-.12c1.34,2.63,2.53,5.26,3.9,7.84,.36,.7,.44,2,1.77,1.64s1.34-1.27,1.34-2.38c-.05-4.88-.05-9.77,0-14.66,0-1.27,0-2.14-1.68-2.17-1.84,0-1.43,1.19-1.54,2.26-.23,2.4,.6,4.87-.52,7.77-1.49-3.26-2.78-6.01-4.02-8.78-.32-1.01-1.36-1.6-2.39-1.35-1.34,.23-.95,1.35-.95,2.18v14.66c0,1.35,.24,2.06,1.81,2.07s1.72-.93,1.7-2.15c-.05-2.26-.03-4.53-.03-6.79h-.03Zm-50.25-1.69c-.07-1.17-.21-2.33-.42-3.48-.71-3.36-2.53-4.95-5.51-5.03-2.98-.08-4.83,1.45-5.71,4.8-.8,3.17-.8,6.48,0,9.65,.4,2.41,2.44,4.19,4.85,4.24,2.39,.31,4.68-1.03,5.62-3.26,.89-2.19,1.3-4.55,1.19-6.92h-.03ZM7.79,286.62c1.49-.49,3.14-.31,3.59-1.66,.98-2.95,2.8-5.68,2.68-8.96-.23-6.55-.35-13.11-.8-19.65-.17-2.52,.3-4.95,.2-7.43,0-1.1-.5-1.83-1.5-1.94-1.34-.15-.91,1.08-.94,1.73-.19,4.74-.2,9.47-.63,14.21-.39,4.29-1.66,8.46-1.43,12.88,.19,3.46-.71,6.98-1.17,10.81Zm51.98,37.72v.23c-.27,.03-.55,.03-.82,0-2.26-.59-4.59,.66-5.36,2.88-.96,2.12-.41,4.63,1.34,6.14,.84,.87,1.85,1.58,2.68,2.46s2.13,1.5,1.34,3.03-2.03,1.03-3.19,1.22c-.84,.15-2.27-1.43-2.51,.77s1.23,1.98,2.53,2.12c.88,.18,1.78,.24,2.68,.19,2.56-.39,5.03-1.12,5.91-3.98s-.32-5.14-2.53-6.96c-.8-.61-1.56-1.27-2.28-1.98-.63-.65-1.34-1.43-.63-2.38s1.34-1.8,2.68-.88c.99,.7,1.66,.43,1.97-.78s-.21-1.96-1.46-2.07c-.76-.08-1.57-.03-2.36-.03Zm18.1,9.54v2.71q0,6.77,6.58,6.69c1.01,0,2.8,.84,2.68-1.35-.16-1.92-1.81-1.35-2.82-1.06-1.58,.47-2.91,.09-2.68-1.48s-1.94-4.4,1.72-4.7c.94-.08,1.58-.3,1.53-1.35s-.74-1.12-1.48-1.07c-2.68,.18-1.73-1.84-1.89-3.17-.23-1.76,.8-2.06,2.21-1.96h2.12c1.03,0,1.43-.53,1.34-1.53s-.64-1.15-1.43-1.14c-1.92,0-3.84,.07-5.75,0-1.56-.08-2.17,.47-2.11,2.1,.05,2.42-.03,4.87-.03,7.31Zm-8.57,1.5v5.81c0,1.46,.27,2.25,1.98,2.22s2.09-.61,2.05-2.17c-.08-3.86,0-7.73,0-11.6,0-1.5,.11-2.71,2.04-2.44,.98,.11,1.48-.37,1.5-1.35s-.67-1.35-1.56-1.35c-2.68,0-5.46,0-8.18-.08-.95,0-1.54,.26-1.53,1.35s0,2,1.34,1.81c2.55-.38,2.47,1.2,2.4,2.95s-.07,3.22-.05,4.85Zm-.9,30.59c-.78-1.84,.52-4.86-2.52-4.24-2.08,.42-3.94-.37-5.98-.16-3.55,.35-4.37,.66-4.17,4.53,.15,2.95,2.03,2.71,4.09,1.98,.4-.14,.94,.22,1.34,.28,2.16,.34,4.18,.3,5.11-2.38,1.06,2.07,2.91,2.6,5.66,1.8-.51-.68-3.42-.96-.4-2.23,.24-.06,.39-.31,.33-.56-.04-.17-.17-.29-.33-.34-3.29-1.12,.55-1.73,.25-2.63q-2.59-.31-3.38,3.94Zm-25.79-32.48v2.44q0,7.69,7.74,7.12h.9c.89-.18,.99-.87,.97-1.62s-.25-1.2-1.01-1.26c-.6-.08-1.2-.08-1.8,0-2.49,.55-3.14-.54-3.03-2.91,.16-3.53,0-7.09,0-10.65,0-1.35,0-2.37-1.85-2.31-1.65,0-2.04,.73-1.98,2.23,.12,2.37,.05,4.66,.05,6.98h.01Zm-14.67,.14h0v-7.61c0-1.07-.27-1.73-1.52-1.68s-2.01,.09-1.94,1.6,0,2.84,0,4.25c0,1.03,.13,2.06-1.34,2.29-2.41,.38-1.34,1.84-.3,2.14,1.74,.49,1.53,1.54,1.52,2.71s.07,2.64,0,3.95c-.08,1.56,.97,1.48,1.98,1.56s1.58-.51,1.56-1.64c0-2.49,.03-5.02,.03-7.55h.01Zm2.99,28.33c-2.68-1.35-5.03,1.49-7.58-.41,.08,.63,.08,1.27,0,1.89-.83,3.07,1.6,4.34,3.34,3.82,2.91-.89,5.36,.95,7.98,.41,.12,0,.2-.24,.78-.99-2.47,.85-2.04-1.29-2.76-2.07-1.13,.37-.34,2.48-1.62,1.76-2.11-1.14-1.45-2.95-.15-4.4h.01ZM10.97,240.72h0c0,1.35-.08,2.64,0,3.95,0,.78,.83,1.08,1.53,1.23s.68-.31,.68-.73c0-3.69,.56-7.38,.19-11.08-.11-1.1-.35-2.19-1.66-1.98s-1.34,1.2-1.19,2.37c.31,2.07,.34,4.15,.46,6.24Zm55.13,107.24c-.08,1.65-.35,3.15,1.94,2.88,1.34-.15,2.68,0,2.52-2.02-.16-2.02-.36-3.56-2.83-3.61s-1.34,1.87-1.64,2.75Zm-28.08,2.57c1.85,.07,3.9,.97,4.02-1.84,0-1.53-.28-3.17-1.97-3.19-4.45-.05-.09,3.83-2.05,5.03Zm11.37,15.52c-.59,.89-1.05,.47-1.48,.5-1.64,.09-1.11,.93-.27,1.35s2.12,.64,2.45-.19c.47-1.14,1.09-2.77-.84-3.49-.55-.2-1.34-.19-1.06-1.04,.21-.65,.78-.37,1.22-.08s.93,.46,1.11-.3c.12-.51-.16-1.04-.66-1.2-.71-.4-1.58-.43-2.32-.08-.72,.42-.55,1.2-.66,1.89-.31,1.92,1.6,1.75,2.49,2.64Zm44.7-17.36c.43,.77-.98,2.45,1.58,2.53,3,.09,1.81-2.12,2.15-3.3,.42-1.42-.71-2.11-2.07-2.15-2.09-.07-1.61,1.53-1.66,2.92Zm-13.41,12.71c-1.42,2.3,0,4.37-1.65,5.91-1.25-1.68,.07-3.82-1.5-5.97v5.12c0,1.06,.43,1.84,1.56,1.83s1.64-.89,1.61-2.06-.03-2.63-.03-4.87v.04Zm2.12,5.7c-.19,0-.6-1.08-.74,.14,0,.5,0,1.03,.75,1.06s1.78,.43,2.19-.47c.75-1.72-.46-3.48-.08-5.29,.13-.68-1.07-.65-1.77-.62-.55-.05-1.03,.36-1.07,.91,0,.09,0,.18,.01,.26,0,.92-.47,2.1,1.06,2.44,.66,.15,1.5,.42,1.03,1.42-.28,.57-.8,.5-1.39,.16h.01Zm-3.22-20.92c.55-1.52-.2-1.48-1.34-1.22s-1.7,1.16-1.78,2.41c-.16,1.6,.33,3.19,1.34,4.43,.55,.65,1.68-.34,1.34-.81-1.1-1.8,.48-3.15,.43-4.8h.01Zm7.07,3.88c0,.62-.74,1.45,.3,1.8s1.21-.64,1.49-1.35c.51-1.21,.66-2.54,.44-3.83-.11-.94-.95-1.61-1.87-1.5-.02,0-.05,0-.07,.01-1.41,.12-.95,1.35-.9,2.14s1.35,1.58,.6,2.73h.01Zm-56.94-4.76c-.99,.32-1.76,.88-1.25,2.17,.51,1.29-.86,3.41,1.9,3.18,1.73-.14,1.77-1.48,1.78-2.71,.09-1.36-.94-2.54-2.29-2.63-.06,0-.11,0-.17,0h.01Zm9.31,22.34c0-1.06-3.57-1.12-.42-2.49,.48-.2,.48-.61,0-.81-3.63-1.35,.56-1.76,.39-2.77-1.62-.32-3.23-.62-2.8,1.89,.25,1.73-1.42,4.99,2.82,4.18h.01Zm21.23-76.07c1.74,.26,0-2.1,1.34-2.35l-1.94-2.29-2.2,2.31c1.35,.18-.59,4.05,2.8,2.33Zm-12.35,54.3c.82,.62,1.97,.95,1.85,2.31-.08,.77-.83,2.42,.83,2.34s1.34-1.35,.75-2.44c-.19-.39,.15-.77,.56-.92,.68-.22,1.03-.64,.71-1.35s-.97-.65-1.56-.58c-.95,.09-1.98-.34-3.15,.64h0Zm-2.27,21.78c.3-2.06,.87-4.15-.31-6.77-.79,2.21-.68,4.64,.31,6.77Zm30.04-58.85c-1.85,.37-2.52,1.85-3.82,3.29,2.52-.15,2.55-2.45,3.82-3.29Zm-32.32,91.22c-1.05,0-2.36-.8-2.59,.96,0,.43,.2,1.35,.36,1.35,1.42,.07,1.74-1.18,2.23-2.31Zm53.24-112.18c-.89,.92-1.27,2.22-1.02,3.48,0,.18,.56,.43,.68,.37,1.34-.8,.72-2.12,.82-3.25-.01-.15-.24-.27-.48-.6Zm-24.27,20.99c-1.52,.75-2.8,1.92-3.69,3.37,2.48-.12,2.66-2.26,3.66-3.37h.03Zm21.79,79.76c.78-1.54,1.9-3.11,0-4.95v4.95Zm-13.93-6.92c.52-.13,.91-.55,1.01-1.08,.11-.62-.16-.93-.75-.96s-1.26,.08-1.42,.74,.4,.96,1.17,1.3Zm-71.76,.97l-.15-.24-.19,.08,.25,.35,.08-.19Zm.55,2.04v-.27c0-.07-.25-.2-.32,0,0,.09,.03,.18,.09,.24,0,0,.16-.03,.23-.04v.07Z"/>
  <path class="cls-3" d="M88,89.41l-7.26-.08c0-.41-.17-.53-.51-.22l.5,.24c.67,6.43,1.77,12.86,1.86,19.3,.08,6.02,.67,12.02,.97,18,.25,5.33,.59,10.83,1.34,16.24,.59,4.21-.15,8.65-.51,12.97-.19,2.22,.21,4.6-1.97,6.44-.99,.78-1.17,2.23-.4,3.23,.23,.29,.52,.53,.86,.68,.08,0,.23,.11,.23,.16,0,3.56,3.58,5.54,3.89,8.99,.14,.57,.19,1.15,.16,1.73-.51,3.15-.46,3.17,2.68,4.39-.58-2.12-.76-4.33-.52-6.51,1.25,.34,1.34,1.52,1.74,2.3,4.21,7.15,7.01,15.01,10.96,22.24,2.36,4.32,2.98,8.95,4.75,13.29,.63,1.56,.15,2.53-1.77,2.08,0,.99,2.52,0,1.11,1.76-.47,.58,0,1.22,.3,1.2,3-.16,1.73,2.11,2.19,3.55,2.27,7.2,.42,14.32,0,21.48-.58,8.86-.58,17.73-.75,26.61-.06,4.82-.44,9.64-1.14,14.41-1.88-2.87-3.92-5.64-5.61-8.62-5.49-9.69-13-17.03-23.32-21.33-3-1.41-6.26-2.17-9.58-2.21-2.8,0-1.01,1.35-.71,2.29-4.22,.37-8.41-1.53-12.63,0-1.14,.42-1.13-1.87-2.68-1.8,3.8-1.73,7.79-.89,11.6-1.35-19.78-2.44-33.96,7.31-46.03,22.26-.93-7.69-1.19-15.46-.78-23.2,.74-12.1-.54-24.25-3.8-35.92-.66-2.25-1.74-4.41-2.35-6.83-3.94,3.82-4.02,8.97-4.81,13.83-1.34,8.38,0,16.81-.27,25.23-.03,.26-.09,.52-.19,.77l-.68-.84c0-1.26-.09-2.52-.15-3.78,0-.07,.17-.15,.16-.2-.06-.16-.12-.32-.2-.47-.36-8.55-.76-17.08,.27-25.71,1.34-11.23,5.47-21.38,10.94-31.13,6.31-11.1,10.05-23.49,10.94-36.26,.44-6.06,1.61-12.07,1.88-18.16,.32-.09,.54-.26,.39-.65l.71-.83c-.32,10.57-1.22,21.12-2.68,31.59,.29-1.51,.93-2.93,1.86-4.14,1.03-1.48,1.65-3.22,1.77-5.02,.07-4.19,.37-8.38,.93-12.53,.83-7.65,1.76-15.28,2.35-23.01,.28-3.82,2.53-7.34,1.86-11.12-.76-4.22,.12-8.24,.46-12.34,.27-1.26,.22-2.57-.13-3.8-1.11-.24-1.69,1.25-2.82,.77v-1.15c.07-.07,.17-.14,.17-.19-.02-.17-.06-.33-.11-.49l.47-1.84c.31-.25,.64-.48,.98-.68,1.94-.89,4.02-2.53,5.97-.61,.64,.64,.76,.93,1.26,.32,3.54-4.25,8.33-1.46,12.49-2.17,1.48-.24,3.37-.72,4.91,.39,.93-3.53,3.31-.15,4.88-.97,.79-.05,1.52,.42,1.81,1.16,.17,.74-1.02,.23-1.14,.89,1.74,.97,3,.72,3.61-1.35-.95-.45-2.55-.38-2.44-1.8,.09-1.42,.61-2.77,1.48-3.88,2.07-1.95,4.99-2.68,7.72-1.94-.7,.93-.42,1.68,.25,2.71,.67,1.31,1.61,2.45,2.76,3.36-1.53,1.35,2.12,1.77,.58,3.13,1.74,.49,3.54,.97,5.23,1.46,2.6,.74,2.86,.07,3.58,2.45,.02,.2,.05,.4,.11,.6v.61l.03,.03Zm10.14,114.23c.72-3.21-.52-5.7-1.85-8.12-.25-.59-.89-.9-1.5-.72-.52,.15-.38,.58-.25,.97,.76,2.65,.7,5.77,3.61,7.86h0ZM51.21,112.26c-.44-.68-1.23-1.04-2.03-.95-.84,.07-1.61,.62-1.34,1.57s.99,.81,1.73,.77c.82,.02,1.53-.58,1.66-1.39h-.03Zm28.07-23.28l-.84-.24c0,.12-.08,.34,0,.37,.16,.09,.34,.13,.52,.12,.09,0,.19-.14,.35-.24h-.03Z"/>
  <path class="cls-3" d="M1.99,395.93c.94-1.02,1.15-.65,1.14,.54,0,5.28,0,10.57,.24,15.89,1.6-2.14,.47-4.89,1.78-7.24,.13,5.56-.2,11.29,6.12,14.62-.32-6.54,2.45-12.57,1.34-19.77,3.08,4.57,6.68,8.76,10.73,12.48,10.37,8.81,21.67,15.24,35.69,15.42,11.12,.12,20.73-3.64,29.62-10.3,11.37-8.54,18.06-19.91,21.69-33.46,.59-2.22,.13-4.66,1.34-6.7-.62,15.19-.3,30.33,0,45.49,.3,7.66-1.19,15.28-4.36,22.25-1.15,.53-2.28,1.16-3.46,1.6-2.9,1.06-3.08,1.53-1.34,4.06-4.36,2.15-8.05,5.71-13.1,6.4-12.93,1.75-25.84,3.14-38.89,2.71-9.58-.3-19.12-1.31-28.55-3-11.65-2.06-17.37-9.27-19.9-20.11-1.15-4.93-1.17-9.99-1.85-14.97-.1-1.32,.23-2.63,.94-3.74,.43-.16,.48-.38,.08-.65l-.08-1.19c.39-.71,.42-1.56,.08-2.29,0-.54,0-1.08,.07-1.62,.31-1.25,.33-2.55,.05-3.8,.45-1.72,.03-3.56-1.13-4.91-.03-.07-.06-.13-.08-.2-.38,.78,0,1.29,.6,1.35,.86,.12,.83-.74,.86-1.27,.17-2.52,.27-5.03,.38-7.57Zm27.88,54.91c1.06,2.71,2.53,3.13,5.14,1.95-1.83-.27-3.58-.93-5.14-1.95h0Zm50.8,2.56c-2.29-2.07-2.59-2.04-4.48,.2l4.48-.2Z"/>
  <path class="cls-2" d="M87.95,88.17c-.72-2.38-.98-1.71-3.58-2.45-1.69-.49-3.49-.97-5.23-1.46,1.54-1.35-2.11-1.77-.58-3.13-1.15-.9-2.09-2.05-2.76-3.36-.67-.99-.95-1.73-.25-2.71-2.73-.74-5.65-.01-7.72,1.94-.87,1.12-1.38,2.47-1.48,3.88-.11,1.42,1.49,1.35,2.44,1.8-.6,2.04-1.86,2.3-3.61,1.35,.12-.66,1.34-.15,1.14-.89-.29-.74-1.02-1.21-1.81-1.16-1.57,.83-4.02-2.56-4.88,.97-1.54-1.11-3.43-.64-4.91-.39-4.16,.7-8.94-2.08-12.49,2.17-.5,.61-.62,.31-1.26-.32-1.93-1.92-4.02-.28-5.97,.61-.34,.2-.67,.43-.98,.68-.12-3.72,.12-7.44,.72-11.11,1.17-.3,2.68,0,2.78-1.95,.19-3.95,.51-7.9,.78-11.84-.42,1.26-1,2.47-1.7,3.6,.36-6.2,.68-12.18,1.07-18.28,.07-1,.27-1.99,.58-2.95,.15-.47-.93-2.3,1.06-1.22-.55-1.61,1.27-3.8-1.22-4.93-.32-1.78-.08-3.62,.7-5.25,0,2.45,.58,3.22,2.86,1.54,.85-.48,1.35-1.4,1.29-2.38,0-1.25,.24-2.71,2.12-2.71,1.06,0,2.82-.15,2.29-1.49-.43-1.11-.52-4.06-3.34-2.71-.24,.11-1.27,1.07-1.19-.27,.15-2.31-1.96-2.71-3.06-3.98l-.36-3.11c1.34,1.61,2.68,2.63,3.65-.3,0-.2,.48-.3,.74-.43,.52,.88-.7,2.63,.94,2.79s2.41-1.26,2.57-2.8c.02-.81,.25-1.61,.66-2.31,.7-1.08,1.82-.58,2.75-.7,7.36-.92,14.51,.55,21.67,1.91,3.92,.73,8.05,1,10.97,4.18,.89,.62,1.31,1.72,1.09,2.79-1.96,2.37-4.4,.35-6.57,.73l3.35-1.6c-1.44-.54-2.51-1.79-2.84-3.3-.83,.66-.51,1.71-1.54,2.17-1.69,.77-.83,1.85,.16,2.71-2.09,.62-3.3-.54-4.25-2.18-.36-.62-.7-1.2-1.54-1.35-7.11-1.02-14.33-1.09-21.46-.2-.67,.09-2.16,.11-1.49,1.14s-1.14,2.91,1.34,2.88c1.19,0,2.4,.51,3.55,.38,6.96-.83,13.89,.8,20.84,.12,.99-.11,2.2-.14,2.59,1.04,.45,1.81,2.2,2.96,4.02,2.64,.63,0,1.34,.83,1.96,1.27,1.96,5.93,1.96,12.09,2.25,18.11,.82,13.17,1.65,26.32,3.21,39.42,.04,.81,.02,1.62-.05,2.42Zm-8.37-29.1c0,5.54-.2,10.08,.54,14.63,.27,1.58,.87,2.11,2.29,2.12,1.69,0,1.34-1.26,1.25-2.15-.25-3.21-.25-6.43,0-9.64,.12-2.71-.02-5.44-.44-8.12-1.03-5.41-3.21-10.83-1.48-16.61,.24-.81-.46-1.73-1.21-2.34s-1.34-1-2.2-.54-.15,1.25-.16,1.89c-.04,7.24,2.4,14.37,1.41,20.75Zm-3.69-28.42c-2.17,1.61-4.49,1.23-6.62,1.35-7.46,.49-15.07,1.81-21.99-2.57-.4-.26-.76-.74-1.25-.12s-.23,1.12,.34,1.52c1.28,.84,2.71,1.41,4.21,1.66,7.75,1.68,15.58,.84,23.4,.54,.98-.04,2.05-.31,1.92-2.33v-.05Zm-13.93-3.41c-1.62-1.72-6.71-3.02-8.34-2.33-.5,.12-.8,.63-.68,1.13v.02c.09,.34,.53,.92,.61,.89,2.79-1.12,5.39,1.38,8.41,.28Zm-13.13,53.87c1.54,1.35,4.55,.88,4.92-.68,.14-.44,.14-.91,0-1.35-.2-.38-.93-.28-.99,0-.55,2.21-2.63,1.33-3.93,2.03Z"/>
  <path class="cls-3" d="M83.32,18.95c-2.99-3.18-7.05-3.45-10.97-4.18-7.16-1.35-14.31-2.83-21.67-1.91-.93,.12-2.05-.38-2.75,.69-1.97-.26-3.77-.23-4.17,2.34-.25,.14-.67,.23-.74,.43-1.01,2.92-2.31,1.91-3.65,.3-1.32-.39-2.16-1.71-1.96-3.09,.72-7.02,3.31-11.03,10.51-12.3,9.42-1.74,19.08-1.54,28.42,.6,7.03,1.61,9.39,5.85,10.26,12.87,.3,2.6-2.32,2.75-3.29,4.25Z"/>
  <path class="cls-2" d="M33.46,89.33c1.13,.47,1.7-1.02,2.82-.77,.34,1.26,.37,2.6,.07,3.87-.34,4.06-1.22,8.12-.46,12.34,.67,3.79-1.58,7.31-1.86,11.12-.59,7.66-1.52,15.29-2.35,23.01-.55,4.16-.86,8.34-.93,12.53-.12,1.81-.74,3.54-1.77,5.02-.94,1.21-1.58,2.63-1.86,4.14,1.47-10.47,2.36-21.02,2.68-31.59-1.34-4.18,.23-8.24,.62-12.32,.89-9.15,2.03-18.23,3.04-27.37Z"/>
  <path class="cls-3" d="M82.59,28.28c-.64-.45-1.34-1.35-1.96-1.27-1.82,.32-3.57-.83-4.02-2.64-.39-1.18-1.6-1.15-2.59-1.04-6.95,.68-13.88-.95-20.84-.12-1.15,.14-2.36-.41-3.55-.38-2.47,0-.72-1.95-1.34-2.88s.82-1.04,1.49-1.14c7.13-.88,14.34-.82,21.46,.2,.84,.11,1.18,.69,1.54,1.35,.95,1.64,2.16,2.8,4.26,2.18h.76c2.17-.38,4.61,1.64,6.57-.73,1.54,2.75,.51,4.79-1.78,6.47Z"/>
  <path class="cls-3" d="M38.09,37.02c2.49,1.12,.67,3.32,1.22,4.93-1.98-1.08-.91,.74-1.06,1.22-.31,.96-.51,1.95-.58,2.95-.39,6.05-.71,12.09-1.07,18.28,.71-1.13,1.28-2.34,1.7-3.6-.27,3.94-.59,7.89-.78,11.84-.11,1.99-1.61,1.65-2.78,1.95,.68-8.27,1.34-16.54,2.05-24.81,.38-4.26,.86-8.51,1.29-12.76Z"/>
  <path class="cls-3" d="M102.97,186.65c-2.68-.53-3.04-3.52-5.11-4.78-1.18-.94-2.24-2.03-3.16-3.22-.56-.58-1.34-1.19-1.15-2.03,1.34-4.56,.08-9.26,.83-13.85v-.3c1.91,8.37,4.79,16.49,8.6,24.17Z"/>
  <path class="cls-3" d="M39.74,19.78c1.1,1.26,3.21,1.66,3.06,3.98-.08,1.35,.95,.38,1.19,.27,2.82-1.35,2.91,1.56,3.34,2.71,.52,1.35-1.23,1.46-2.29,1.49-1.88,0-2.09,1.49-2.12,2.71,.05,.99-.46,1.92-1.33,2.38-2.28,1.68-2.91,.91-2.86-1.54,.59-2.64,1.45-5.18-.27-7.9-.74-1.25,.3-2.88,1.27-4.09Z"/>
  <path class="cls-2" d="M102.51,450.78c-1.69-2.52-1.5-2.99,1.34-4.06,1.18-.43,2.31-1.07,3.46-1.6-.58,1.73-1.44,3.34-2.56,4.78-.48,.78-1.07,1.69-2.24,.88Z"/>
  <path class="cls-3" d="M107.44,195.92c-1.92-1.79-3.1-4.25-3.3-6.89,1.37,2.15,2.48,4.47,3.3,6.89Z"/>
  <path class="cls-3" d="M5,248.52c.27,.1,.52,.23,.76,.38-.83,3.56,.47,7.27-.79,10.83v-5.28l.12-.15-.11-.15v-5.63Z"/>
  <path class="cls-3" d="M4.98,259.97c.87,3,.81,6.2-.19,9.16v-1.56c.43-.73,.46-1.64,.08-2.4l.11-5.21Z"/>
  <path class="cls-2" d="M1.36,408.53c.26,1.27,.21,2.58-.12,3.83-.69-1.2-.64-2.68,.12-3.83Z"/>
  <path class="cls-2" d="M1.18,413.99c.34,.73,.31,1.58-.08,2.29-.51-.69-.47-1.64,.08-2.29Z"/>
  <path class="cls-2" d="M4.87,265.18c.38,.76,.35,1.66-.08,2.4-.6-.7-.56-1.74,.08-2.4Z"/>
  <path class="cls-2" d="M4.96,256.06v.87c-.42-.3-.42-.58,0-.87Z"/>
  <path class="cls-2" d="M4.75,241.7c.08,.15,.15,.31,.2,.47l-.16,.2c-.09-.15-.17-.31-.24-.47l.2-.2Z"/>
  <path class="cls-2" d="M88.02,89.33v-.61c0,.15,.12,.31,.16,.46s-.09,.15-.16,.15Z"/>
  <path class="cls-2" d="M4.98,254.2l.11,.15-.12,.15c0-.08-.12-.16-.17-.26l.19-.04Z"/>
  <path class="cls-2" d="M33.54,87.54c.05,.16,.08,.32,.11,.49,0,0-.11,.12-.17,.19l.07-.68Z"/>
  <path class="cls-2" d="M29.1,129.81c.15,.39-.07,.55-.39,.65l.39-.65Z"/>
  <path class="cls-2" d="M1.18,417.46c.4,.27,.35,.49-.08,.65l.08-.65Z"/>
  <path class="cls-1" d="M13.33,387.57c-1.94-5.31-3.22-10.84-3.81-16.47-.27-3.35-.21-6.73,.16-10.07,.16-3.08,.16-6.17,0-9.26,.16-11.52,0-23.01,.11-34.55,.07-10.25,3.19-19.72,7.48-29.68,.44,1.79,.74,2.88,.98,3.98s-.98,2.6-.66,3.49c1.25,3.38,.68,6.83,.58,10.2-.12,3.95,.99,8.12-1.17,11.86,1.97,2.57,.46,5.41,.51,8.12,.09,4.99,0,9.99,0,14.98,0,.81-1.1,2.71,1.52,2.08,.86-.19,.12,1.75,.62,2.59h0c-.56-.11-.79,.16-.72,.72v.14c-1.76,.69-1.64-.95-2.07-1.91-.85,.61-1.04,1.81-.43,2.66l.03,.04c.86,1.27,1.76-.19,2.68,0l.15,.81c-.93,.7-2.68,1.35-.32,2.46l.47,.73c-1.09,.43-1.09,1.35-1.06,2.3,.17,6.06-.28,12.1-.59,18.15-.11,2.17,.72,4.49,.24,6.52-1.23,5.1,1.17,10.02,.38,15.05-.15,.95-.17,1.84-1.19,2.25l-3.88-7.2Z"/>
  <path class="cls-1" d="M106.87,307.23c.83,13.37,.08,26.77,.46,40.14,.08,2.94-.56,5.91,.19,8.85v4.37l-.15,.22,.13,.22v2.04l-.13,.23,.15,.23c-.5,7.76-.56,15.56-3.47,22.93-1.94,0-2.68-.51-1.53-2.61s.67-2.71-.78-5.48c-.56-1.08,.28-2.71-.59-3.9,1.78-1.08,.17-3.02,.98-4.22,2.68-3.95,.93-7.71-.59-11.29-.6-1.43-.44-2.1,.52-2.63,1.69-.91,1.22-2.04,.67-3.28-.9-2-.83-1.96,.28-3.68,.23-.37-.16-1.16,.2-1.72,.49-.17,.76-.7,.59-1.2h0c0-.1-.27-.14-.4-.21l-.12,1.48c-1.11-1.73-2.87-3.37-.71-5.55,.16-.24,.24-.53,.23-.83-2.68-1.19,1.03-3.97-1.23-5.25,1.65-3.65-.47-7.27-.13-10.99s.94-7.67,0-11.42c-.67-2.82,.68-5.41,.2-8.22-.63-3.64,.21-7.52-.23-11.23-.2-1.65,.93-2.6,.83-3.97,2.22,5.44,3.77,11.14,4.64,16.96Z"/>
  <path class="cls-3" d="M104,386.48c2.91-7.36,2.98-15.17,3.47-22.93,1.48,8.68-.44,16.92-2.9,25.13-.94,3.18-2.99,5.91-3.02,9.47,0,2.71-2.41,4.64-4.02,6.56-3.28,4.23-7.07,8.02-11.28,11.3-1.72,1.27-1.76,1.22-3.54-.09-.26-.24-.66-.22-.89,.05-.05,.05-.09,.12-.12,.18-1.58,4.98-6.49,4.86-10.1,6.77-.68,.35-1.66-.07-2.15,.88,.64,.77,2.12-.15,2.45,1.35-2.12,1.42-4.67,1.57-7.07,1.89-3.88,.71-7.86,.58-11.68-.39-1.34-.39-3.45-.28-2.9-2.9,.16-.77-.86-.58-1.34-.7-6.21-1.13-12.09-3.65-17.21-7.38-4.61-3.42-8.68-7.53-12.07-12.18-2.87-4.08-5.07-8.6-6.52-13.39-.24-.85-.79-1.73,.15-2.52l3.74,7.17c7.6,12.18,17.82,21.05,31.89,24.66,23.51,6.01,44.78-8,53.48-28.3,.17-.58,.26-1.17,.28-1.77,.55-.47,.86-1.18,.84-1.91,.56-.11,.59-.5,.47-.97Z"/>
  <path class="cls-3" d="M106.87,307.23c-.87-5.83-2.44-11.53-4.67-16.99-6.96-18.95-25.32-34.7-48.68-31.43-10.36,1.48-19.87,6.63-26.82,14.52-3.62,4.05-6.84,8.45-9.62,13.13h0c1.15-6.95,4.47-13.36,9.48-18.27,15.19-15.02,35.14-16.77,49.49-10.56,.19,.08,.43,.08,.56,.22,4.16,3.91,10.19,4.74,14.11,9.26,3.92,4.52,7.79,8.89,10.55,14.24,1.48,2.87,3.3,5.71,3.61,8.86,.51,5.1,1.93,10.02,2.53,15.08,.19,.7-.02,1.44-.55,1.94Z"/>
  <path class="cls-3" d="M64.39,269.52c.13,2.65-.05,5.3-.51,7.9-.84,3.52-3.62,6.36-5.9,5.98-3.35-.55-5.79-4.56-5.58-8.3,.17-3.17,0-6.34-.5-9.47-.52-3.18,0-4.15,3.03-3.51,2.36,.59,4.82,.56,7.16-.11,1.66-.51,2.45,.14,2.32,2s-.03,3.67-.03,5.49Zm-4.84,.49c-.98,.54-3.74-.96-2.78,1.58,.9,1.77,.96,3.85,.17,5.67-.24,.71,.12,1.48,.82,1.72h.02c.52,.2,1.1-.08,1.28-.61,.03-.09,.05-.18,.06-.28,.38-2.71,2.28-5.33,.36-8.12,.27-1.45,.24-1.6-1.68-2.17-.47-.15-1.34-1.26-1.66,0-.25,.88,.38,1.08,1.34,.97,.9-.18,1.79,.34,2.08,1.22h-.03Z"/>
  <path class="cls-3" d="M91.69,334.49v6.77c0,1.22,0,2.18-1.7,2.15s-1.81-.76-1.81-2.07v-14.66c0-.81-.43-1.95,.95-2.18,1.02-.25,2.07,.34,2.39,1.35,1.22,2.77,2.51,5.52,4.02,8.78,1.13-2.9,.3-5.41,.52-7.77,.11-1.07-.3-2.31,1.54-2.26,1.61,0,1.69,.89,1.68,2.17-.05,4.88-.05,9.77,0,14.66,0,1.11-.11,2.06-1.34,2.38s-1.34-.93-1.77-1.64c-1.34-2.57-2.62-5.21-3.9-7.84l-.58,.15Z"/>
  <path class="cls-3" d="M41.44,332.79c.1,2.37-.3,4.73-1.19,6.92-.96,2.22-3.26,3.54-5.65,3.21-2.42-.05-4.46-1.83-4.85-4.24-.8-3.17-.8-6.48,0-9.65,.89-3.36,2.68-4.87,5.71-4.8s4.8,1.68,5.51,5.03c.22,1.17,.38,2.35,.47,3.53Zm-3.71,.15c-.03-1.42-.28-2.82-.75-4.15-.27-.84-.64-1.83-1.78-1.77-.93,0-1.34,.83-1.62,1.58-1.03,3.31-.98,6.87,.12,10.15,.17,.84,.87,1.45,1.72,1.49,.93,0,1.34-.83,1.61-1.6,.57-1.84,.81-3.77,.71-5.7Z"/>
  <path class="cls-1" d="M7.79,286.62c.46-3.83,1.34-7.35,1.17-10.83-.23-4.43,1.05-8.59,1.43-12.88,.43-4.74,.44-9.47,.63-14.21,0-.65-.47-1.88,.94-1.73,1.01,.11,1.48,.84,1.5,1.94,.09,2.48-.38,4.91-.2,7.43,.46,6.54,.58,13.1,.8,19.65,.12,3.28-1.7,6.01-2.68,8.96-.46,1.37-2.11,1.19-3.59,1.68Z"/>
  <path class="cls-3" d="M59.77,324.34h2.4c1.25,.11,1.78,.77,1.46,2.07s-.98,1.49-1.97,.78c-1.34-.92-2.04,.07-2.68,.88s0,1.73,.63,2.38c.72,.7,1.48,1.36,2.28,1.98,2.21,1.81,3.43,4.06,2.53,6.96s-3.35,3.59-5.91,3.98c-.9,.05-1.8-.01-2.68-.19-1.34-.15-2.76-.09-2.53-2.12s1.66-.62,2.51-.77c1.17-.19,2.51,.14,3.19-1.22s-.58-2.19-1.34-3.03-1.82-1.6-2.68-2.46c-1.75-1.52-2.3-4.02-1.34-6.14,.78-2.22,3.11-3.47,5.36-2.88,.27,.03,.55,.03,.82,0l-.04-.2Z"/>
  <path class="cls-3" d="M77.88,333.88c0-2.44,.08-4.89,0-7.32,0-1.62,.55-2.18,2.11-2.1,1.92,.11,3.84,0,5.75,0,.79,0,1.34,.18,1.43,1.14s-.36,1.53-1.34,1.53h-2.12c-1.41-.09-2.44,.2-2.21,1.96,.16,1.35-.79,3.34,1.89,3.17,.74,0,1.43,.08,1.48,1.07s-.59,1.35-1.53,1.35c-3.66,.3-1.53,3.11-1.72,4.7s1.15,1.95,2.68,1.48c1.01-.3,2.68-.87,2.82,1.06,.17,2.15-1.62,1.35-2.68,1.35-6.58,.12-6.58,.09-6.58-6.69l.03-2.69Z"/>
  <path class="cls-3" d="M69.31,335.38c0-1.62-.07-3.26,0-4.89,.07-1.62,.15-3.33-2.4-2.95-1.34,.19-1.34-.81-1.34-1.81s.58-1.35,1.53-1.35c2.68,0,5.46,.07,8.18,.08,.89,0,1.58,.16,1.56,1.35s-.52,1.53-1.5,1.35c-1.93-.22-2.05,.93-2.04,2.44v11.6c0,1.56-.44,2.14-2.05,2.17s-2.04-.76-1.98-2.22c.11-1.89,.05-3.83,.05-5.77Z"/>
  <path class="cls-3" d="M68.41,365.97q.8-4.25,3.39-3.94c.3,.89-3.54,1.5-.25,2.63,.24,.06,.39,.31,.33,.56-.04,.17-.17,.29-.33,.34-3.02,1.27-.11,1.56,.4,2.23-2.75,.8-4.6,.27-5.66-1.8-.93,2.71-2.95,2.71-5.11,2.38-.47-.07-1.01-.42-1.34-.28-2.07,.72-3.94,.97-4.09-1.98-.2-3.87,.62-4.18,4.17-4.53,2.04-.2,3.9,.58,5.98,.16,3.02-.62,1.72,2.34,2.51,4.24Z"/>
  <path class="cls-3" d="M66.76,309.77c-.51-.14-1.03,.17-1.17,.68-.03,.11-.04,.22-.03,.33,.19,3.09-1.69,2.02-3.33,1.87-2.08-.19-4.17-.11-6.26-.14-2.09-.03-3.82,0-5.73-.08s-3.82-.34-6.02-.54c1.61-.89,1.34-4.2,4.35-2.79-.78,.16-1.37,.8-1.46,1.6-.12,.22-.39,.55-.34,.64,.32,.45,.58,.12,.82-.16,.8-.3,1.26-1.13,1.1-1.98,2.68-1.12,5.53-.28,8.31-.85s5.67,.15,8.52,.18c1.02,0,1.18,.5,1.19,1.29l.04-.04Z"/>
  <path class="cls-3" d="M42.61,333.5v-7c0-1.5,.34-2.19,1.98-2.23,1.65-.04,1.86,1,1.85,2.31,0,3.56,.12,7.12,0,10.65-.11,2.37,.54,3.46,3.03,2.91,.6-.08,1.2-.08,1.8,0,.75,0,.99,.58,1.01,1.26s-.08,1.45-.97,1.62h-.9q-7.75,.57-7.74-7.12l-.07-2.41Z"/>
  <path class="cls-3" d="M50.28,378.77c-.47-.07-1.01,.74-1.34,.18-.54-1.02,.63-1.35,1.1-1.35,1.82-.19,3.7,0,5.54-.23,3.35-.31,6.71,.66,10.04,.18,1.29-.19,2.49,.7,2.68,2.01,.03,.23,.03,.47,0,.7-.17,1.49-1.85,1.14-2.68,1.15-4.32,0-8.66-.08-12.97-.5-.99-.09-1.93,.49-2.95,0,.31-.6,.6-1.19,.91-1.77,.08-.22,.3-.58,.24-.61-.3-.23-.46-.03-.58,.26Z"/>
  <path class="cls-3" d="M27.94,333.65v7.61c0,1.12-.35,1.72-1.56,1.64s-2.07,0-1.98-1.56c.07-1.35,0-2.64,0-3.95s.23-2.26-1.52-2.71c-1.03-.3-2.12-1.76,.3-2.14,1.45-.23,1.34-1.26,1.34-2.29v-4.25c0-1.42,.86-1.54,1.94-1.6s1.53,.61,1.52,1.68v7.61l-.04-.04Z"/>
  <path class="cls-3" d="M30.93,361.99c-1.34,1.45-1.96,3.26,.11,4.41,1.34,.72,.5-1.35,1.62-1.76,.72,.78,.3,2.92,2.76,2.07-.58,.74-.66,.96-.78,.99-2.68,.54-5.07-1.35-7.98-.41-1.74,.53-4.17-.74-3.34-3.82,.08-.63,.08-1.27,0-1.89,2.57,1.89,4.85-1.02,7.6,.41Z"/>
  <path class="cls-1" d="M10.97,240.72c-.12-2.08-.15-4.17-.36-6.24-.13-1.16,0-2.17,1.19-2.37,1.19-.2,1.62,.88,1.62,2.03,.38,3.71-.24,7.39-.19,11.08,0,.42-.13,.84-.68,.73s-1.46-.45-1.53-1.23c-.12-1.35,0-2.63,0-3.95l-.05-.05Z"/>
  <path class="cls-3" d="M66.1,347.97c.3-.88-.91-2.82,1.64-2.71,2.55,.11,2.68,1.71,2.83,3.61s-1.17,1.87-2.52,2.02c-2.32,.23-2.03-1.27-1.94-2.92Z"/>
  <path class="cls-3" d="M38.02,350.54c1.96-1.2-2.4-5.09,2.07-5.03,1.69,0,2.04,1.66,1.97,3.19-.13,2.82-2.19,1.91-4.04,1.84Z"/>
  <path class="cls-3" d="M19.3,350.54c-.16-.24-.32-.49-.47-.73l.32-2.46c0-.27-.09-.54-.15-.81l-.16-.84v-.14c.39-.08,.74-.22,.72-.72h0c.78,.91,2.49-.09,2.91,1.99,.72,3.11-.7,3.71-3.18,3.71Z"/>
  <path class="cls-3" d="M49.39,366.06c-.9-.89-2.8-.72-2.49-2.59,.11-.69-.07-1.48,.66-1.89,.74-.35,1.61-.32,2.32,.08,.5,.17,.78,.69,.66,1.2-.19,.76-.64,.61-1.11,.3s-1.01-.57-1.22,.08c-.3,.85,.51,.84,1.06,1.04,1.93,.72,1.34,2.35,.84,3.49-.34,.83-1.68,.62-2.45,.19s-1.34-1.35,.27-1.35c.38-.08,.89,.34,1.48-.55Z"/>
  <path class="cls-3" d="M94.09,348.7c0-1.35-.43-2.99,1.66-2.92,1.34,0,2.48,.73,2.07,2.15-.34,1.18,.86,3.4-2.15,3.3-2.56-.08-1.15-1.76-1.58-2.53Z"/>
  <path class="cls-3" d="M80.67,361.36v4.83c0,1.31-.34,2.04-1.61,2.06s-1.56-.77-1.56-1.83v-5.06c1.57,2.15,.25,4.29,1.5,5.97,1.65-1.56,.24-3.63,1.66-5.97Z"/>
  <path class="cls-3" d="M82.77,367.1c.59,.34,1.11,.41,1.34-.16,.47-1-.38-1.27-1.03-1.42-1.53-.34-.99-1.52-1.06-2.44-.1-.54,.26-1.07,.8-1.16,.09-.02,.17-.02,.26-.01,.7,0,1.9,0,1.77,.62-.38,1.81,.83,3.57,.08,5.29-.4,.91-1.41,.5-2.19,.47s-.8-.55-.75-1.06c.17-1.22,.59-.19,.78-.14Z"/>
  <path class="cls-3" d="M79.56,346.18c0,1.58-1.53,3-.34,4.8,.31,.47-.82,1.46-1.34,.81-1.02-1.23-1.5-2.83-1.34-4.43,.08-1.25,.47-2.1,1.78-2.41s1.78-.3,1.23,1.22Z"/>
  <path class="cls-3" d="M86.62,350.06c.75-1.15-.58-1.83-.62-2.71s-.51-2.02,.9-2.14c.92-.15,1.79,.49,1.93,1.42,0,.02,0,.05,0,.07,.22,1.29,.06,2.62-.44,3.83-.28,.74-.32,1.77-1.49,1.35s-.28-1.2-.3-1.83Z"/>
  <path class="cls-3" d="M29.68,345.3c1.36,0,2.45,1.11,2.45,2.48,0,.08,0,.15-.01,.23,0,1.18,0,2.52-1.78,2.71-2.76,.23-1.43-2.03-1.9-3.18s.25-1.91,1.25-2.23Z"/>
  <path class="cls-3" d="M38.99,367.64c-4.24,.81-2.56-2.45-2.86-4.18-.43-2.52,1.18-2.22,2.8-1.89,.17,1.02-4.02,1.35-.39,2.77,.51,.2,.51,.61,0,.81-3.12,1.37,.36,1.43,.44,2.49Z"/>
  <path class="cls-3" d="M60.23,291.57c-3.39,1.72-1.45-2.15-2.8-2.33l2.2-2.31,1.92,2.29c-1.26,.26,.43,2.61-1.31,2.35Z"/>
  <path class="cls-3" d="M47.88,345.87c1.17-.97,2.2-.54,3.15-.64,.59-.07,1.25-.11,1.56,.58s0,1.14-.71,1.35c-.42,.15-.75,.53-.56,.92,.55,1.12,.75,2.37-.75,2.44s-.91-1.57-.83-2.34c.12-1.37-1.03-1.71-1.85-2.31Z"/>
  <path class="cls-3" d="M45.61,367.64c-.98-2.13-1.1-4.56-.31-6.77,1.13,2.61,.55,4.71,.31,6.77Z"/>
  <path class="cls-3" d="M75.65,308.8c-1.27,.84-1.34,3.14-3.82,3.29,1.3-1.43,1.94-2.92,3.82-3.29Z"/>
  <path class="cls-1" d="M43.33,400.02c-.48,1.14-.8,2.38-2.23,2.29-.16,0-.42-.89-.36-1.35,.23-1.69,1.54-.97,2.59-.93Z"/>
  <path class="cls-1" d="M96.57,287.83c.27,.32,.5,.46,.48,.6-.09,1.12,.47,2.45-.82,3.25-.12,.07-.66-.19-.68-.37-.25-1.26,.13-2.56,1.02-3.48Z"/>
  <path class="cls-3" d="M72.27,308.83c-1.01,1.12-1.17,3.25-3.69,3.37,.89-1.45,2.17-2.62,3.69-3.37Z"/>
  <path class="cls-1" d="M94.07,388.58v-4.95c1.9,1.84,.78,3.45,0,4.95Z"/>
  <path class="cls-1" d="M80.16,381.67c-.76-.27-1.34-.57-1.17-1.35s.8-.78,1.42-.74,.86,.34,.75,.96c-.07,.55-.47,1-1.01,1.14Z"/>
  <path class="cls-3" d="M107.48,360.62v-4.37c.64,1.39,.64,2.99,0,4.37Z"/>
  <path class="cls-1" d="M103.53,387.5c.02,.73-.29,1.43-.84,1.91-.51-.27-1.18-.53-.91-1.25s1.06-.74,1.76-.66Z"/>
  <path class="cls-3" d="M66.72,309.81l1.05-.09v.28c-.43,.41-.68,0-.98-.23l-.07,.04Z"/>
  <path class="cls-1" d="M9.77,386.89c.37,.26,.47,.77,.21,1.15-.03,.05-.07,.1-.12,.14v-1.35l-.09,.07Z"/>
  <path class="cls-3" d="M107.46,363.1v-2.04c.56,.56,.57,1.46,.01,2.03h-.01Z"/>
  <path class="cls-1" d="M8.4,382.57l-.11,.26-.23-.35,.21-.15,.12,.24Z"/>
  <path class="cls-1" d="M8.95,384.62s-.17,.07-.19,0c-.06-.07-.09-.15-.09-.24,0-.27,.2-.3,.32,0s-.03,.15-.04,.24Z"/>
  <path class="cls-1" d="M9.79,386.86l-.51-.51,.27-.23c0,.26,.15,.51,.21,.77l.03-.03Z"/>
  <path class="cls-3" d="M17.07,286.49l-.16,.14,.2-.11-.04-.03Z"/>
  <path class="cls-2" d="M98.14,203.64c-2.96-2.1-2.84-5.21-3.61-7.92-.12-.39-.27-.83,.25-.97,.61-.18,1.26,.13,1.5,.72,1.33,2.48,2.57,4.97,1.85,8.17Z"/>
  <path class="cls-2" d="M51.23,112.26c-.15,.82-.88,1.39-1.7,1.35-.74,0-1.57,0-1.73-.77s.56-1.5,1.34-1.57c.83-.11,1.65,.27,2.09,.99Z"/>
  <path class="cls-2" d="M79.3,88.98c-.16,.11-.25,.24-.36,.24-.18,0-.36-.04-.52-.12v-.37l.89,.24Z"/>
  <path class="cls-2" d="M80.74,89.41l-.5-.24c.34-.31,.48-.19,.51,.22v.03Z"/>
  <path class="cls-2" d="M29.87,450.84c1.55,1.02,3.3,1.68,5.14,1.95-2.6,1.18-4.08,.78-5.14-1.95Z"/>
  <path class="cls-2" d="M80.67,453.4l-4.48,.2c1.89-2.19,2.19-2.22,4.48-.2Z"/>
  <path class="cls-1" d="M79.58,59.07c.99-6.37-1.45-13.53-1.42-20.8,0-.65-.67-1.42,.16-1.89s1.56,0,2.2,.54,1.45,1.53,1.21,2.34c-1.73,5.75,.44,11.14,1.48,16.61,.42,2.68,.57,5.41,.44,8.12-.25,3.21-.25,6.43,0,9.64,.13,.89,.44,2.18-1.25,2.15-1.42,0-2.03-.54-2.29-2.12-.72-4.49-.47-9.04-.52-14.58Z"/>
  <path class="cls-3" d="M75.89,30.7c.13,2.02-.94,2.29-1.92,2.33-7.82,.3-15.65,1.14-23.4-.54-1.5-.24-2.93-.78-4.21-1.6-.56-.39-.83-.87-.34-1.52s.84-.14,1.25,.12c6.92,4.39,14.54,3.06,21.99,2.57,2.13-.14,4.51,.24,6.62-1.37Z"/>
  <path class="cls-1" d="M43.76,15.94c.4-2.57,2.2-2.6,4.17-2.34-.41,.71-.63,1.51-.66,2.33-.16,1.54-.89,2.98-2.57,2.8s-.43-1.91-.94-2.79Z"/>
  <path class="cls-3" d="M61.96,27.24c-3.02,1.1-5.63-1.35-8.41-.28-.08,0-.52-.55-.6-.89-.13-.5,.16-1.01,.65-1.15h.02c1.68-.7,6.75,.6,8.34,2.32Z"/>
  <path class="cls-1" d="M77.8,22.51h-.8c-1.01-.85-1.86-1.94-.17-2.71,1.03-.46,.71-1.5,1.54-2.17,.33,1.51,1.4,2.74,2.83,3.29l-3.39,1.58Z"/>
  <path class="cls-3" d="M48.83,81.1c1.34-.7,3.38,.18,3.89-2.02,.07-.31,.79-.41,.99,0,.14,.44,.14,.91,0,1.35-.34,1.54-3.34,1.99-4.88,.66Z"/>
  <path class="cls-2" d="M18.79,345.62l.16,.84c-.87-.18-1.77,1.29-2.68,0-.63-.84-.47-2.04,.36-2.67l.04-.03c.54,.92,.42,2.56,2.12,1.87Z"/>
  <path class="cls-2" d="M19.15,347.28l-.36,2.46c-2.29-1.16-.56-1.76,.36-2.46Z"/>
  <path class="cls-2" d="M19.61,344.77c0,.5-.34,.64-.72,.72-.09-.55,.16-.83,.72-.72Z"/>
  <path class="cls-2" d="M103.28,347.72l.15-1.45c.13,.07,.36,.11,.4,.2,.17,.5-.09,1.03-.58,1.2h0l.04,.04Z"/>
  <path class="cls-2" d="M59.52,269.97c1.92,2.8,0,5.41-.36,8.12-.03,.56-.51,.98-1.07,.95-.09,0-.19-.03-.27-.06-.7-.23-1.08-1-.85-1.71v-.02c.8-1.82,.73-3.9-.17-5.67-.97-2.54,1.8-1.04,2.78-1.58l-.05-.03Z"/>
  <path class="cls-2" d="M59.57,270.01c-.28-.9-1.19-1.44-2.11-1.25-.91,.11-1.54-.09-1.34-.97,.36-1.25,1.19-.14,1.66,0,1.92,.57,1.94,.72,1.68,2.17l.11,.05Z"/>
  <path class="cls-2" d="M37.73,332.94c.1,1.93-.15,3.86-.71,5.7-.3,.77-.68,1.57-1.61,1.6-.84-.04-1.55-.65-1.72-1.49-1.11-3.29-1.15-6.84-.12-10.15,.24-.76,.7-1.54,1.62-1.58,1.14,0,1.52,.93,1.78,1.77,.47,1.34,.72,2.74,.75,4.15Z"/>
  <path class="cls-2" d="M48.7,309.2c.16,.84-.3,1.68-1.1,1.98l-.48-.47c.09-.8,.68-1.44,1.46-1.6l.12,.09Z"/>
  <path class="cls-2" d="M47.6,311.18c-.24,.28-.5,.61-.82,.16,0-.08,.21-.42,.34-.64l.48,.47Z"/>
  <path class="cls-2" d="M50.28,378.77c.12-.28,.28-.49,.58-.27,0,0-.16,.39-.24,.61l-.34-.34Z"/>
</svg>