<?xml version="1.0" encoding="UTF-8"?>
<svg id="Layer_1" data-name="Layer 1" xmlns="http://www.w3.org/2000/svg" width="114" height="460.53" viewBox="0 0 114 460.53">
  <defs>
    <style>
      .cls-1 {
        fill: #fff;
      }

      .cls-2 {
        fill: #332718;
      }

      .cls-3 {
        fill: #8999ab;
      }
    </style>
  </defs>
  <path class="cls-1" d="M2.58,346.99c0,4.17-.13,8.33,0,12.5,.06,2.9-.72,5.81,.08,8.7-.47,1-1.51,1.93-.61,3.21-.15,14.89-1.05,29.74-1.81,44.61-.36,7.01-.51,14.02,1,20.89,2.39,10.77,7.88,18.19,19.63,20.48,10.89,2.05,21.95,3.1,33.04,3.12,12.64,.24,25.27-.88,37.68-3.33,8.37-1.74,15.02-6.07,17.67-14.92,1.55-5.18,3.1-10.4,3-15.81-.4-16.32-.09-32.63-.26-48.94,.92-.79,.64-1.88,.64-2.85,.07-20.97,.06-41.93,.55-62.9,0-1.17,.38-2.47-.64-3.47,.15-10.2,.39-20.4,.42-30.6,0-13.89-.62-27.82,.63-41.63,1.17-13.31-.69-26.71-5.43-39.2-1.66-4.54-4.32-8.54-6.31-12.9-3.44-7.52-6.53-15.28-7.38-23.44-2.22-21.5-3.83-43.05-5.62-64.6-.14-1.72-.42-2.9-2.69-2.9,2.31-.79,2.16-2.51,2-4.12-.35-4.17-.86-8.32-1.2-12.49-1.21-15.15-2.4-30.3-3.56-45.45-.11-1.34-.21-2.63,.74-3.77,1.57-1.89,1.4-3.93,.35-6.01-.7-1.39-1.11-2.52,.81-3.45,1.15-.55,1.79-1.81,1.57-3.06-1-7.12-3.19-11.01-9.95-12.67-10.22-2.52-20.88-2.64-31.15-.36-6.88,1.43-8.5,7.56-8.86,12.61-.17,1.07,.49,2.1,1.53,2.38,1.45,.37,1.37,1.34,.89,2.37-1.27,2.67-2,5.32-.19,8.1,.26,.41,0,1.2-.09,1.79-2.4,10.38-2.67,21.03-3.57,31.55-.93,10.86-1.57,21.75-2.83,32.58-1.4,11.94-2.58,23.91-3.95,35.85-1.3,11.21-2.18,22.48-4.43,33.56-2.06,10.16-6.84,19.22-11.75,28.2-5.71,10.6-8.79,22.4-9.01,34.43-.38,11.84,1.14,23.66,.61,35.5,0,0-.16,.12-.15,.16,.04,.13,.08,.26,.14,.39v1.9c-.57,1.16-.61,2.51-.12,3.7,0,.39,0,.79-.08,1.18-.06,.06-.19,.12-.18,.17,.03,.15,.07,.3,.13,.45,0,.59,0,1.17,.05,1.75l-.1,1.24-.82,52.83c-1,7.53-.62,15.1-.42,22.66Z"/>
  <path class="cls-2" d="M3.93,267.89l.07-1.18c.39-1.19,.45-2.47,.15-3.69v-1.9c.15-.15,.16-.39,.01-.54h-.01c.53-11.86-1-23.67-.61-35.52,.22-12.03,3.31-23.84,9.01-34.43,4.92-9.01,9.69-18.02,11.75-28.2,2.24-11.08,3.12-22.35,4.43-33.56,1.37-11.94,2.55-23.91,3.95-35.85,1.26-10.83,1.9-21.72,2.83-32.58,.9-10.54,1.17-21.17,3.57-31.55,.13-.59,.35-1.38,.09-1.79-1.77-2.78-1.08-5.43,.19-8.1,.48-1,.56-2-.89-2.37-1.04-.29-1.7-1.31-1.53-2.38,.36-5.01,2-11.17,8.86-12.61,10.28-2.28,20.95-2.15,31.18,.38,6.76,1.69,8.93,5.55,9.95,12.67,.22,1.26-.42,2.51-1.57,3.06-1.92,.93-1.51,2.06-.81,3.45,1.05,2.06,1.22,4.11-.35,6.01-1,1.14-.85,2.43-.74,3.77,1.19,15.15,2.38,30.3,3.56,45.45,.34,4.17,.85,8.32,1.2,12.49,.14,1.6,.29,3.32-2,4.12,2.27,0,2.55,1.18,2.69,2.9,1.78,21.54,3.39,43.1,5.62,64.6,.85,8.16,3.93,15.92,7.38,23.44,2,4.36,4.65,8.36,6.31,12.9,4.74,12.49,6.59,25.89,5.43,39.2-1.25,13.81-.58,27.74-.63,41.63,0,10.2-.27,20.4-.42,30.6-.7-3.56-1.54-7.11-2-10.7-.75-4.71-2.16-9.3-4.18-13.63-1.94-4.01-4.19-7.86-6.72-11.51-3.52-5.43-8.09-10.11-13.45-13.75-9.61-6.56-20.65-8.95-32.31-7.77-2.55,.11-5.07,.62-7.46,1.5-6.01,2.66-12.1,5.23-17.46,9.4-6.79,5.18-12.28,11.87-16.02,19.55l-.1,.63v-.06c-4.58,6.91-5.91,14.96-7.91,22.78-.13,.49,.24,1.12,.38,1.68-1.41,.85-.91,2.33-1.09,3.54-1.17,7.79-.41,15.66-1.29,23.46v-9.12l.81-52.82c.42-.39,.67-.79,.1-1.25,0-.58,0-1.16-.05-1.74,.07-.06,.2-.12,.2-.17-.03-.15-.07-.29-.13-.43ZM34.27,103.14c.11-.47,.3-1-.48-1-.18,0-.35,.39-.53,.6l1.06,.34c.26,1.59,.16,3.22-.28,4.78-.09,.51,0,1,.64,1.14,.23,0,.73,.21,.62-.29-.39-1.84,1.27-4.09-1.03-5.57ZM5.4,270.08c.57-.14,1.34,.34,1.72-.45,.05-.27-.04-.55-.25-.74-.86-.36-1.16,.32-1.47,1.19Z"/>
  <path class="cls-2" d="M112.04,377.48c.17,16.31-.14,32.62,.26,48.94,.13,5.41-1.42,10.63-3,15.81-2.66,8.85-9.3,13.18-17.67,14.92-12.4,2.46-25.03,3.57-37.68,3.33-11.09-.03-22.15-1.07-33.04-3.12-11.76-2.27-17.25-9.69-19.64-20.47-1.53-6.89-1.38-13.88-1-20.89,.74-14.87,1.64-29.72,1.74-44.61,1.57,.23,.87,1.51,1.06,2.36,.49,2.28-.08,4.77,1.31,6.88,1.25,6.53,3.73,12.76,7.3,18.36,1.44,2.88,3.24,5.57,5.34,8.01,3.34,3.95,7.47,7.1,11.57,10.21,5.72,4.33,11.89,7.84,19.02,9.47,1.6,.37,1.89-.57,2.25-1.56,.48-1.32-.43-1.42-1.42-1.62-1.38-.29-2.69-1-4.08-1.22-6.63-1.13-12.01-4.77-16.74-9.1-5.81-5.53-10.86-11.81-15.02-18.67-1.87-4.12-3.85-8.18-4.61-12.7,.47,1.24,1,2.47,1.46,3.79,1-.79,.57-1.55,.36-2.29-1.6-5.46-2.41-11.12-2.41-16.81,.24-14.88,.59-29.77,.6-44.66-.11-8.57,1.17-17.09,3.78-25.25,1.42-4.32,3.21-8.52,4.84-12.78,.76-.28,1.2-1.06,1.05-1.85l-1.11,.63c1.39-4.09,3.73-7.8,6.81-10.83,4.54-4.75,8.82-9.78,15.09-12.53,4.39-1.92,9.04-3.12,13.6-4.68,3-1,.39-1.65,.39-2.49,3-.24,6.01-1.14,9.01-.64,1.06,.17,3-.09,3,1.44,0,1.95-2,.22-2.78,1-.16,.22-.29,.45-.41,.69,2.39,.59,4.83,.15,7.08,1,4.08,1.44,8.81,1.44,11.68,5.49,.28,.39,.49,1,1.38,.8,2.34-.44,5.62,1.65,6.95,4.23l-.66,.41,1.26,.81,.58,.63,.62,.61c.07,1.16,.34,2.12,1.84,1.84l.6,.61c1.51,1.19,1.91,3.32,3.68,4.3,.12,1.07,.85,1.97,1.87,2.31-.61-.78-1.23-1.55-1.85-2.33l-.85-1.59,.47-.47c2.56,2.58,4.47,5.72,5.59,9.17,1.28,4.13,2.3,8.39,4.43,12.52,.17-.78,.29-1.31,.44-2,1.77,5.82,2.92,11.81,3.44,17.87h0c-1.15,.39-.64,1.34-.64,2.07,0,11.48,0,22.98-.09,34.47,0,1,.4,2.05-.52,2.86-.9-.76-.74-1.81-.74-2.82,.06-8.86,.05-17.72,.2-26.58,.33-11.54-2.04-22.99-6.93-33.44-.87-1.84-1.31-4.11-3.54-5.01,1.2-1.16-.17-1.82-.62-2.5-10.57-15.85-28.88-25.28-50.15-19.02-13.02,3.85-22.32,12.55-28.52,24.59-6.3,10.73-9.01,22.39-9.09,34.77-.18,13.06-.18,26.21-.62,39.36-.24,7.43-.3,15.02,1.58,22.03,1.71,6.07,4.5,11.78,8.23,16.87,10.15,13.07,22.53,22.31,39.86,22.78,5.9,.23,11.79-.72,17.31-2.81,4.96-2.02,9.57-4.79,13.68-8.22,3.58-2.85,7.09-6.08,8.78-10.63,3.04-4.15,5.34-8.8,6.79-13.74,2.86-8.73,2.81-17.75,3-26.79,.06-2.65-.68-5.46,.65-8.01,1.12,9.38,.59,18.76-.08,28.13,.13-.47,.26-.94,.38-1.42,.05,.71,.01,1.43-.1,2.13-.75,6.42-3.93,11.81-7.01,17.29-1.56,2.76-2.23,6.08-4,8.63-3.27,4.56-7.38,8.47-12.11,11.5-4.85,3.13-9.81,6.31-15.76,7.28,2,.07,3.42,1.88,5.75,.86,6.67-2.73,12.87-6.49,18.37-11.14,4.39-3.87,7.62-9.01,10.7-14.02,4.22-7.06,5.8-14.92,7.44-22.77Z"/>
  <path class="cls-3" d="M108.5,350.1c.92-.82,.52-1.91,.52-2.87,0-11.49,0-23.03,.09-34.47,0-.73-.51-1.68,.64-2.07v42.21c.33-8.76,.48-17.53,.28-26.3-.13-5.29,.65-10.59-.31-15.87-.52-6.06-1.68-12.05-3.44-17.87-.15,.71-.27,1.24-.44,2-2.12-4.13-3.14-8.39-4.43-12.52-1.12-3.45-3.03-6.59-5.59-9.17l-.52-.69c-.31-.34-.57-1.14-1.06-.76-.72,.57,0,1,.48,1.29l.63,.63,.85,1.59h0c-1.77-1-2.17-3.1-3.68-4.3h0c.34,.11,.9,.58,1,.15,.23-1.16-.61-1.69-1.6-2h0c0-.46-.15-.72-.65-.64h0c-.77-1.14-1.29-2.6-3.08-2.46h0c-1.33-2.57-4.61-4.67-6.95-4.23-.89,.16-1.1-.41-1.38-.8-2.87-4-7.61-4-11.68-5.49-2.25-.8-4.69-.36-7.08-1,.12-.24,.25-.47,.41-.69,.8-.79,2.8,.94,2.78-1,0-1.53-1.9-1.27-3-1.44-3-.5-6.01,.4-9.01,.64,0,.84,2.64,1.45-.39,2.49-4.52,1.55-9.17,2.76-13.59,4.69-6.27,2.74-10.55,7.78-15.09,12.53-3.08,3.03-5.42,6.74-6.81,10.83l.05-.06c-.81,.14-.82,.66-.62,1.28l-.45,.08,.17,.37,.26-.48h.6v.05c-1.62,4.25-3.41,8.45-4.84,12.77-2.55,8.21-3.76,16.77-3.56,25.36,0,14.89-.36,29.78-.6,44.66,0,5.69,.81,11.35,2.41,16.81,.21,.74,.67,1.5-.36,2.29-.51-1.32-1-2.55-1.46-3.79h0c-.46-1,.1-2.2-.66-3.14l.06,.08c-.41-.34-.26-.72-.06-1.1-1.27-1.69-.26-4-1.43-5.71-.52,1.92-.52,3.95,0,5.87,.33,1.25,.72,2.76-1.48,2.77-1.39-2.11-.82-4.6-1.31-6.88-.19-.85,.51-2.13-1.06-2.36-.9-1.28,.14-2.19,.61-3.21,.12-5.9,.31-11.79,.28-17.7,0-1.12,1-2.45-.32-3.49-.24-7.52-.62-15.09,.38-22.62v9.09c.86-7.83,.1-15.7,1.26-23.49,.18-1.21-.32-2.69,1.09-3.54,1.57-.07,2.24-.93,2.54-2.45,.78-4.08,1.92-8.08,3.41-11.95,1.25-3.24,3.58-6.34,1.54-10.08v.05c.43-.14,.42-.35,.1-.62,3.74-7.68,9.23-14.38,16.02-19.55,5.37-4.18,11.41-6.74,17.46-9.4,2.39-.88,4.91-1.39,7.46-1.5,11.66-1.18,22.7,1.21,32.31,7.77,5.35,3.64,9.93,8.31,13.45,13.75,2.53,3.66,4.78,7.51,6.72,11.51,2.02,4.33,3.42,8.91,4.18,13.63,.51,3.59,1.35,7.14,2,10.7,1,1,.67,2.3,.64,3.47-.49,20.97-.48,41.93-.55,62.9,0,1,.28,2.06-.64,2.85-1.64,7.84-3.22,15.7-7.5,22.68-3.08,5.01-6.32,10.16-10.7,14.02-5.5,4.65-11.7,8.41-18.37,11.14-2.32,1-3.77-.79-5.75-.86,5.95-1,10.91-4.15,15.76-7.28,4.72-3.04,8.83-6.94,12.11-11.5,1.81-2.55,2.48-5.87,4-8.63,3.1-5.48,6.29-10.87,7.01-17.29,.11-.7,.15-1.42,.1-2.13-.12,.48-.25,.95-.38,1.42,.67-9.37,1.2-18.75,.08-28.13,.12-.23,.14-.51,.15-.79Z"/>
  <path class="cls-2" d="M2.58,346.99c1.27,1,.31,2.37,.32,3.49,0,5.91-.16,11.8-.28,17.7-.8-2.89,0-5.8-.08-8.7-.09-4.17,.02-8.33,.04-12.5Z"/>
  <path class="cls-3" d="M4.17,263.02c.29,1.22,.24,2.5-.16,3.69-.48-1.2-.42-2.54,.16-3.69Z"/>
  <path class="cls-3" d="M3.93,270.27c.57,.46,.32,.86-.1,1.25,.03-.42,.06-.84,.1-1.25Z"/>
  <path class="cls-3" d="M3.93,267.89c.07,.15,.12,.3,.15,.46,0,.05-.13,.11-.2,.17-.06-.15-.1-.3-.13-.46-.01-.05,.12-.11,.18-.17Z"/>
  <path class="cls-3" d="M4.23,260.57c.15,.15,.16,.39,.01,.54h-.01c-.06-.11-.1-.24-.14-.38,0,0,.09-.11,.14-.16Z"/>
  <path class="cls-1" d="M12.88,281.93c2,3.74-.29,6.84-1.54,10.08-1.49,3.88-2.63,7.88-3.41,11.95-.3,1.52-1,2.38-2.54,2.45-.14-.56-.51-1.19-.38-1.68,2.01-7.82,3.34-15.87,7.88-22.81Z"/>
  <path class="cls-3" d="M34.26,103.14c2.31,1.48,.65,3.72,1,5.58,.11,.5-.39,.32-.62,.29-.67-.09-.73-.63-.64-1.14,.44-1.55,.54-3.18,.28-4.78l-.02,.05Z"/>
  <path class="cls-3" d="M5.4,270.08c.31-.87,.63-1.55,1.47-1.19,.21,.19,.3,.47,.25,.74-.38,.79-1.11,.31-1.72,.45Z"/>
  <path class="cls-3" d="M34.32,103.14l-1.06-.34c.18-.21,.35-.59,.53-.6,.78,0,.59,.52,.48,1l.05-.06Z"/>
  <path class="cls-1" d="M12.94,281.36c.32,.27,.33,.48-.1,.62,.04-.2,.07-.41,.1-.62Z"/>
  <path class="cls-3" d="M98.01,399.51c-1.69,4.56-5.2,7.78-8.78,10.63-4.11,3.43-8.72,6.2-13.68,8.22-5.52,2.09-11.41,3.05-17.31,2.81-17.33-.47-29.71-9.71-39.86-22.78,1-1.57,1-3.38,1.29-5.16,.91-5.23-2.5-10.54,.34-15.71v-.3c-.69-3.21,.23-6.48-.28-9.85-.71,.27-1.19,1.36-2.08,.78-.64-.41-.38-1.05-.21-1.65,1.09-3.67,2.28-7.34,2.39-11.12,1.22-.28,2.47,1.37,2.78,.39s1.31-2.7-.43-3.76c-.4-.31-.75-.68-1.05-1.08,2.12-1,1-3,.74-4.23-.34-1.66-2.17-.79-3.4-.87-.2-1.1,2.61-3.27-1.15-3.16-.48,0-.28-.86-.28-1.34,0-4.89,.06-9.77,.05-14.66,0-1,.24-2,1.27-2.13,2-.2,1.33-1.75,1.43-2.71,.37-3.64-1.11-7.18,.06-11.06,.63-2.07,.19-5.01-.31-7.64s-1.23-5.67,1.58-7.83c.38-.3,.44-.85,.14-1.22-.11-.14-.25-.24-.42-.29-1.48-.47-.78-1.41-.88-2.38-.2-2.09,1.09-4.74-1.74-6.1,6.2-12.01,15.48-20.74,28.52-24.59,21.28-6.29,39.58,3.14,50.15,19.02,.45,.68,1.82,1.34,.62,2.5,.27,2.57-.25,5.15-1.48,7.42-.71,1.36-1,2.85,1.43,2.77h0c-.2,3.32-1.19,6.69-.48,9.93,.5,2.27-1.54,5.82,2.37,6.46,.5,2.12-2.13-.56-2.27,2.16-.24,4.69,0,9.37-.37,14.02-.85,3.18,.55,6.53-.71,10.6-1.63-3.57-2.92-6.38-4.19-9.2-.3-1.02-1.34-1.64-2.38-1.39-1.19,.22-.89,1.18-.89,1.94v14.64c0,1.15-.1,2.19,1.62,2.27,2,.09,1.77-1.14,1.77-2.36v-7.78c2.45,2.86,3.23,5.7,4.51,8.24,.4,1.15,1.47,1.94,2.68,2-.51,.9-2.36,.58-2,2.24-1.09,.12-2,.11-2.13,1.78-.31,3,.57,4.23,3.6,3.56-1.14,1.24-2.11,2.45-1.09,4.33,.68,1.24-1,3.32,2,3.94,1.21,.25-2.6,1.81-1.28,3.76,.14,.2,.08,.38,.31,.23,.33-2.56,2.47-.81,3.67-1.4,1-.46,1.64,1,1.5,2.08-.2,1.63,1,3.95-1,4.72-1.46,.58-3.7,.74-4.94-1.27-1.72,3.93-1.16,8.19,1.34,10.39-.44,1.05-2.24,.8-2.08,2.61,.35,3.16,.3,6.35-.14,9.5-.58-.05-1.17-.08-1.51,.51-.18,.31,0,.57,.36,.56,.68,0,1-.49,1.13-1.09,.94,2.25,1.03,4.77,.25,7.08-.31,1-.57,1.86,.89,2Zm-56.35,4.41c-.26-1.47,1.61-2,1.6-3.4-1-.5-2.11-.67-2.66,.33-.65,1.21-.09,2.32,1.09,3.05,.24,1.2-.86,1.76-1.31,2.63s-.49,1.56,.48,2c1.56,.66,3.17,1.22,4.75,1.86,.87,.36,1.32,0,1.69-.75s.64-1.95-.24-2.11c-2.38-.46-3.48-2.61-5.4-3.61Zm9.8-94.38h0c-1-1.51-2,.66-3.07,0q-2.22-.24-3.84,2.87l2-.46c.2,.22,.44,.66,.61,.63,3.1-.48,6.22,.82,9.21,.24s5.86,.85,8.54-.87c2.78,2.06,5.01,1.22,7.49-2.89-1.89,.95-4.07-.66-5.69,1.1-1.71-2.93-2.27,.14-3.33,.64-.21,.1-.37,.57-.65,.19-.38-.86,1.21-1.16,.54-2.08-3.91,.43-7.9-.23-11.8,.63h0Zm22.03,69.84c-4.32-1.58-8.89-1.33-13.34-1.44-3.52-.15-7.05-.12-10.56,.1-.58,.05-1.6,.16-2,1,1.27,.37,.58,2.81,2.38,2.45,2.95-.6,5.85,.7,8.71,.24,3.24-.52,7.01,1.7,9.83-2.24-.12,1.57-.49,3,1.47,1.63,1.12-.67,2.28-1.26,3.47-1.76,.55-.24,1.23-.3,1.42-1-.65-.01-1.28,.13-1.36,1.02h-.03Zm-9.14-110.14v-4.87c0-1.62-.4-2.44-2.09-1.93-2.66,.72-5.46,.72-8.12,0-1.86-.44-2.89,.6-2.67,2.26,.58,4.56,1.84,9.01,1.17,13.72,0,.26,.21,.56,.33,.83,1.11,2.43,2.72,4.77,5.54,4.46s4.52-2.62,5.08-5.42c.69-2.96,.96-6,.8-9.04h-.03Zm-23.42,64.87c.07-1.12,.07-2.24,0-3.36-.52-3.87-2.28-5.74-5.41-5.9-3.4-.17-5.24,1.43-6.15,5.44-.6,2.79-.57,5.68,.09,8.45,.58,2.83,2,4.34,4.83,4.58,3,.26,4.87-1.24,5.95-3.82,.68-1.7,.92-3.55,.69-5.38Zm14.44,6.62c-.61,.37-1.95-1.25-2.22,.7-.24,1.75,.92,2,2.21,2.17,.3,0,.58,.2,.88,.24,3.42,.44,6.7-1,7.87-3.44,1.28-2.68,.4-5.24-2.73-7.94-.7-.57-1.37-1.18-2-1.82-.67-.69-1.16-1.54-.26-2.38,.65-.62,1.25-1.72,2.44-.59,.43,.49,1.18,.53,1.67,.1,.07-.07,.14-.14,.19-.22,.44-.58,.51-1.36,.17-2-.38-.76-1.18-.72-1.87-.75-.87-.05-1.55,.8-2.6,.37-2.28-.92-3.94,.4-5.17,2.06s-1.07,3.79,.1,5.71c.88,1.43,2.28,2.29,3.41,3.45,.81,.85,2,1.64,1.5,3.07-.66,1.59-2.2,1.16-3.59,1.27Zm22.73-6.48v2.74q0,7.38,7.5,6.76h.61c.8,0,1-.48,1.07-1.17s-.34-1.15-1.09-1.15c-.61-.05-1.22-.02-1.82,.09-1.7,.49-3-.06-2.79-1.82,.24-1.56-1.91-4.44,1.89-4.57,.81,0,1.4-.18,1.4-1.16,0-.74-.3-1.18-1.07-1.12-3.23,.28-2.26-2.12-2.29-3.73-.05-2.44,1.92-1.41,3.13-1.63,.51-.04,1.02-.04,1.52,0,.55,.06,1.05-.33,1.11-.88,.01-.1,0-.2,0-.29,0-.83-.31-1.18-1.21-1.36-6.58-1.26-8.01-.19-8.01,6.27l.06,3.03Zm-8.68,1.46v5.5c0,1.35-.18,2.58,1.93,2.6s2-1,2-2.47v-11.01c0-1.63-.13-3.17,2.25-2.86,1,.13,1.2-.5,1.22-1.31s-.36-1.27-1.26-1.28c-2.85,0-5.7-.13-8.55-.17-.81,0-1.35,.32-1.36,1.24,0,.75,0,1.65,1,1.56,3.32-.34,2.86,1.89,2.82,3.91-.12,1.44-.09,2.86-.09,4.3h.03Zm-26.96-1.46v7.62c0,.75-.3,1.82,1,1.84,2.54,0,5.08,0,7.61-.09,1.11-.05,1.06-1,1.05-1.86s-.61-1.17-1.42-1.13c-.41-.04-.82-.04-1.22,0-2.84,.64-3.47-.69-3.32-3.28,.19-3.44,0-6.91,.06-10.36,0-1.46-.3-2.25-2-2.21s-1.76,.88-1.73,2.14c-.02,2.5-.06,4.9-.05,7.34h.03Zm25.55,34.04v-3.61c.08-2.59-1-3.08-3.38-2.28-1.64,.47-3.37,.47-5.01,0-1.72-.46-3.34,.43-3.51,.94-.63,1.51-.63,3.2,0,4.71,.44,.85,1.35,.76,2.17,.72,.68,.06,1.28-.45,1.34-1.14,0-.06,0-.11,0-.17v-2.55c.38,1.43-.11,3.38,1.66,3.89,1.51,.39,3.11,.05,4.34-.91,1.25-1.08,1.11-1.25,2.36,.4h.03Zm-40.51-34.26h.07v-7.01c0-1.15,.09-2.23-1.68-2.19-1.6,0-1.72,.86-1.77,2.14-.07,2.41,.78,5.07-1.59,7.01-.44,.37-.48,1.15,.5,1.26,1.18,.13,1,1,1,1.83,0,1.42,.08,2.85,0,4.28s.49,1.93,1.92,1.95,1.59-.78,1.57-1.92c-.05-2.45-.02-4.9-.02-7.35Zm38.75,14.3c0,1.5-.47,3.16,1.94,2.94,1.28-.11,2.66-.07,2.46-1.82s-.07-3.73-2.74-3.77c-2.3-.03-1.47,1.65-1.66,2.65h0Zm-24.5,0c.09-.98-.51-1.9-1.45-2.2-.61-.36-1.37-.39-2-.07-1.2,.78-.57,1.62-.14,2.57,.14,.59,.07,1.21-.2,1.75-.46,1.22,.32,1.39,1.14,1.37,1.83-.06,2.64-1.14,2.65-3.43h0Zm37.88-3.28c-1.3,.56-3,.46-3.45,2-.56,1.72,.47,3.27,1.23,4.79,.22,.49,.77,.72,1.27,.53,.31-.14,.76-.76,.7-.85-1.54-2.14,1.09-4.07,.25-6.48h0Zm6.43,.27c-.4,2.32,1.68,4.24,.6,6.44-.05,.12,.26,.58,.43,.59,.37,0,1,0,1.09-.2,.53-1.59,1.33-3.13,.89-4.94s-1.74-1.58-3.01-1.9h0Zm-54.23,3.59c-.71-1.06-.31-3-2.27-3.07-.9,0-2.24,.65-1.61,1.48,.91,1.2-1.39,3.91,1.88,3.83,1.53-.05,1.73-1.1,2-2.25h0Zm28.09-56.9c1.89,.15,.55-2.25,1.82-2.59-.66-.71-1.82-.9-2.08-2l-2.32,2c1.37,.27-.06,3.28,2.58,2.59Zm-11.85,54.37c1.94,.69,1.33,2.21,1.44,3.55,0,.46-.1,1.08,.62,1.16,.28,0,.82-.08,.83-.17,.06-1.59,.59-3.12,1.53-4.41,.18-.21-.52-.84-1.08-.79-.94,.08-1.98-.32-3.34,.65Zm26.31-43.15c-.31-1.52-1.68-1.79-2.64-2.3-.62-.34-1.12,.79-.91,1.45,.28,.89,.5,2.14,1.83,2,.72-.05,1.67-.19,1.75-1.15h-.03Zm-28.32,88.47c-3.91,1.32-1.68-2.78-3.5-3.6-.2,1.52-.82,2.92,.28,4.06,.91,.92,2.03,.44,3.22-.45Zm26.23-79.32c2-.21,2.19-2.2,4.07-3.25-2.74,.11-2.98,2.17-4.07,3.25Zm-50.33,21.37l-.18-.19-.19,.18,.27,.2,.1-.19Z"/>
  <path class="cls-1" d="M18.2,285.3c2.83,1.36,1.54,4,1.74,6.1,.1,1-.6,1.91,.88,2.38,.46,.14,.71,.63,.57,1.09-.05,.17-.15,.31-.29,.42-2.81,2.16-2.09,5.21-1.58,7.83s.94,5.57,.31,7.64c-1.17,3.88,.31,7.42-.06,11.06-.1,1,.59,2.51-1.43,2.71-1,.1-1.27,1.12-1.27,2.13,0,4.89,0,9.77-.05,14.66,0,.48-.2,1.35,.28,1.34,3.76-.11,.95,2.06,1.15,3.16-.12,.86,.43,1.61,.11,2.6-.75,2.25,.55,2.83,2.55,2.49,.3,.41,.65,.77,1.05,1.08,1.74,1.06,.75,2.78,.43,3.76s-1.56-.67-2.78-.39c-.11,3.78-1.3,7.45-2.39,11.12-.17,.6-.43,1.24,.21,1.65,.89,.58,1.37-.51,2.08-.78,.51,3.37-.41,6.64,.28,9.85,0,.1,.06,.23,0,.3-2.84,5.17,.57,10.48-.34,15.71-.31,1.77-.26,3.58-1.29,5.16-3.73-5.1-6.51-10.83-8.21-16.91-1.88-7.01-1.82-14.57-1.58-22.03,.44-13.08,.44-26.23,.54-39.39,.08-12.39,2.79-24.04,9.09-34.77Z"/>
  <path class="cls-1" d="M97.01,346.18c-.31-1.66,1.54-1.34,2.06-2.25,1.1-.74,.54-1.87,.56-2.8,.06-4.39-.15-8.79,.1-13.16,.14-2.53-.84-3.2-3-3,.38-4.68,.13-9.36,.37-14.02,.14-2.72,2.77,0,2.27-2.16-3.91-.64-1.87-4.19-2.37-6.46-.71-3.24,.28-6.61,.48-9.93,.52-.1,.9-.33,.86-.94,0-.06-.16-.17-.24-.15-.65,.11-.64,.6-.61,1.1-2.41,.08-2.14-1.41-1.43-2.77,1.24-2.27,1.75-4.85,1.48-7.42,2.23,.93,2.67,3.19,3.54,5.01,4.89,10.45,7.26,21.91,6.93,33.44-.15,8.86-.14,17.72-.2,26.58,0,1-.16,2.06,.74,2.82v.85c-1.33,2.58-.59,5.39-.65,8.01-.2,9.01-.15,18.02-3,26.79-1.47,4.96-3.8,9.63-6.89,13.79-1.46-.14-1.2-1-.87-2,.77-2.33,.65-4.87-.33-7.12h0c.44-3.15,.49-6.34,.14-9.5-.16-1.81,1.64-1.56,2.08-2.61-2.5-2.2-3.06-6.46-1.34-10.39,1.23,2,3.47,1.85,4.94,1.27,1.92-.76,.76-3.08,1-4.72,.14-1.11-.55-2.54-1.5-2.08-1.2,.59-3.34-1.16-3.67,1.4-.23,.15-.17,0-.31-.23-1.32-2,2.49-3.51,1.28-3.76-3-.62-1.33-2.7-2-3.94-1-1.87,0-3.08,1.09-4.33-.23-.83-.69-1.65-.27-2.55,.63-1.35,.02-2.18-1.23-2.75Z"/>
  <path class="cls-3" d="M12.58,394.5c4.16,6.86,9.21,13.14,15.02,18.67,4.69,4.34,10.11,8.01,16.74,9.1,1.38,.24,2.69,.93,4.08,1.22,1,.2,1.9,.3,1.42,1.62-.36,1-.65,1.93-2.25,1.56-7.12-1.63-13.3-5.15-19.02-9.47-4.11-3.11-8.23-6.26-11.57-10.21-2.1-2.44-3.89-5.13-5.34-8.01,1-.49,.47-1.19,.11-1.68-.91-1.3-.24-2.07,.82-2.8Z"/>
  <path class="cls-1" d="M12.58,394.5c-1.06,.7-1.73,1.47-.78,2.79,.36,.49,.86,1.19-.11,1.68-3.57-5.6-6.05-11.84-7.3-18.36,2.2,0,1.81-1.52,1.48-2.77-.52-1.92-.52-3.95,0-5.87,1.17,1.75,.16,4,1.43,5.71-.86,.41-.41,.76,.06,1.1l-.06-.08c.08,1.08-.23,2.24,.66,3.14h0c.76,4.51,2.74,8.57,4.62,12.66Z"/>
  <path class="cls-3" d="M96.21,275.24c.62,.78,1.24,1.55,1.85,2.33-1.02-.34-1.75-1.24-1.87-2.31l.02-.02Z"/>
  <path class="cls-3" d="M91.9,270.35c-1.5,.28-1.77-.68-1.84-1.84h0c.41,.16,.81,.7,1.23,0h0c-.31,.74-.1,1,.65,.64h0c-.7,.42-.16,.82,0,1.23l-.04-.03Z"/>
  <path class="cls-3" d="M16.54,282.62l1.11-.63c.15,.79-.29,1.58-1.05,1.85h0v-1.24l-.06,.02Z"/>
  <path class="cls-3" d="M88.86,267.27l-1.26-.81,.66-.41h0c-.4,.71,.12,1,.62,1.23h-.02Z"/>
  <path class="cls-3" d="M92.5,270.97l-.6-.61h0l.61,.61h-.01Z"/>
  <path class="cls-3" d="M90.11,268.52l-.62-.61h0l.62,.61Z"/>
  <path class="cls-3" d="M89.44,267.9l-.58-.63h0l.61,.61-.03,.02Z"/>
  <path class="cls-2" d="M109.73,310.72c1,5.28,.18,10.58,.31,15.87,.2,8.77,0,17.54-.28,26.3v-42.21l-.03,.04Z"/>
  <path class="cls-2" d="M89.47,267.88l-.61-.61c-.5-.26-1-.52-.62-1.23,1.79-.14,2.31,1.32,3.08,2.46-.42,.69-.82,.15-1.23,0l-.62-.62Z"/>
  <path class="cls-2" d="M8.01,381.88c-.89-.9-.58-2.06-.66-3.14,.76,.94,.2,2.14,.66,3.14Z"/>
  <path class="cls-2" d="M92.54,270.94l-.61-.61c-.17-.41-.71-.81,0-1.23,1,.3,1.83,.83,1.6,2-.09,.42-.65-.05-.99-.16Z"/>
  <path class="cls-2" d="M16.59,282.56v1.24h-.6c-.22-.58-.21-1.1,.6-1.24Z"/>
  <path class="cls-2" d="M7.41,378.81c-.47-.34-.92-.69-.06-1.1-.2,.38-.34,.77,.06,1.1Z"/>
  <path class="cls-2" d="M94.73,273.02c-.52-.31-1.2-.72-.48-1.29,.49-.38,.75,.42,1.06,.76l-.58,.53Z"/>
  <path class="cls-2" d="M91.94,269.13c-.75,.32-1,.1-.65-.64,.5-.08,.68,.18,.65,.64Z"/>
  <path class="cls-2" d="M95.36,273.65l-.63-.63,.58-.53,.52,.69-.47,.47Z"/>
  <path class="cls-2" d="M15.95,283.81l-.26,.48-.17-.37,.45-.08-.02-.03Z"/>
  <path class="cls-2" d="M64.38,269.25c.17,3.02-.08,6.06-.76,9.01-.56,2.79-2.29,5.11-5.08,5.42-2.78,.31-4.43-2-5.54-4.46-.12-.27-.37-.57-.33-.83,.67-4.67-.59-9.16-1.17-13.72-.22-1.66,.81-2.7,2.67-2.26,2.66,.72,5.46,.72,8.12,0,1.69-.51,2.16,.39,2.09,1.93s-.01,3.28-.01,4.91Zm-3.85,3.49c-.12-1-.8-1.84-1.75-2.17-.62-.39-1.42-.36-2,.08-.44,.32-.54,.95-.22,1.39,1.54,1.82,1.16,3.68,.41,5.68-.29,.62-.01,1.36,.61,1.65,.07,.03,.14,.06,.22,.08,.9,.22,1.28-.44,1.46-1.18,.38-1.57,.73-3.16,1.27-5.52h0Zm-.19-2.4c-.18-.93-.88-1.68-1.8-1.93-.81-.24-1.5-1-2.45-.61-.1,0-.12,.37-.11,.56,.12,1.6,1.44,.52,2.11,.94,.73,.39,1.48,.74,2.25,1.05h0Z"/>
  <path class="cls-2" d="M96.68,324.99c2.21-.22,3.19,.45,3,3-.25,4.37,0,8.77-.1,13.16,0,.93,.54,2.06-.56,2.8-1.22-.06-2.29-.85-2.69-2-1.27-2.54-2.05-5.38-4.51-8.24v7.78c0,1.22,.21,2.45-1.77,2.36-1.72-.08-1.62-1.12-1.62-2.27v-14.64c0-.76-.3-1.72,.89-1.94,1.07-.29,2.17,.34,2.46,1.41v.02c1.27,2.82,2.56,5.63,4.19,9.2,1.26-4.11-.14-7.45,.71-10.63Z"/>
  <path class="cls-2" d="M40.93,334.12c.22,1.82-.02,3.67-.71,5.38-1.08,2.58-3,4.09-5.95,3.82-2.8-.24-4.25-1.74-4.83-4.58-.66-2.78-.69-5.66-.09-8.45,.91-4,2.74-5.61,6.15-5.44,3.12,.16,4.89,2,5.41,5.9,.08,1.12,.08,2.24,.02,3.36Zm-3.5,.29c.17-1.91-.11-3.83-.84-5.6-.29-.74-.74-1.52-1.75-1.45-.74,.1-1.34,.63-1.52,1.35-1.23,3.47-1.2,7.27,.09,10.72,.21,.72,.83,1.23,1.57,1.29,1,0,1.43-.7,1.75-1.46,.62-1.53,.86-3.19,.7-4.84v-.02Z"/>
  <path class="cls-2" d="M55.37,340.73c1.39-.11,2.93,.32,3.54-1.29,.54-1.43-.69-2.22-1.5-3.07-1.13-1.16-2.53-2-3.41-3.45-1.17-1.91-1.43-3.89-.1-5.71s2.88-3,5.17-2.06c1,.43,1.73-.42,2.6-.37,.69,0,1.49,0,1.87,.75,.34,.64,.27,1.43-.17,2-.37,.54-1.1,.68-1.64,.31-.08-.06-.16-.12-.22-.19-1.19-1.13-1.79,0-2.44,.59-.9,.84-.41,1.69,.26,2.38,.63,.64,1.3,1.25,2,1.82,3.13,2.7,4,5.26,2.73,7.94-1.17,2.44-4.45,3.88-7.87,3.44-.3,0-.58-.2-.88-.24-1.29-.16-2.45-.42-2.21-2.17,.32-1.93,1.66-.31,2.27-.68Z"/>
  <path class="cls-2" d="M78.1,334.26v-3.05c0-6.46,1.4-7.53,8.01-6.27,.9,.18,1.23,.53,1.21,1.36,.1,.54-.26,1.06-.81,1.16-.1,.02-.2,.02-.29,0-.51-.04-1.02-.04-1.52,0-1.21,.22-3.18-.81-3.13,1.63,0,1.61-.94,4,2.29,3.73,.77-.06,1.07,.38,1.07,1.12,0,1-.59,1.13-1.4,1.16-3.8,.13-1.65,3-1.89,4.57-.25,1.76,1.09,2.31,2.79,1.82,.6-.11,1.21-.14,1.82-.09,.75,0,1.09,.39,1.06,1.13s-.27,1.18-1.07,1.17h-.61q-7.5,.62-7.5-6.76l-.03-2.7Z"/>
  <path class="cls-2" d="M69.39,335.72v-4.28c0-2,.5-4.26-2.82-3.91-.93,.09-1-.81-1-1.56,0-.92,.55-1.26,1.36-1.24,2.85,0,5.7,.14,8.55,.17,.9,0,1.29,.38,1.26,1.28s-.24,1.44-1.22,1.31c-2.38-.31-2.27,1.23-2.25,2.86,.06,3.66,0,7.33,0,11.01,0,1.45,0,2.5-2,2.47s-1.94-1.25-1.93-2.6c.07-1.8,.06-3.68,.06-5.52Z"/>
  <path class="cls-2" d="M42.42,334.26v-7.32c0-1.26,.09-2.11,1.73-2.14s2,.75,2,2.21c-.05,3.45,.13,6.92-.06,10.36-.15,2.59,.48,3.92,3.32,3.28,.41-.04,.82-.04,1.22,0,.81,0,1.41,.16,1.42,1.13s.06,1.81-1.05,1.86c-2.53,.12-5.07,.12-7.61,.09-1.26,0-1-1.09-1-1.84,0-2.55,.02-5.1,.02-7.64Z"/>
  <path class="cls-2" d="M73.54,379.39c-1.19,.51-2.35,1.09-3.45,1.76-2,1.39-1.59-.06-1.47-1.63-2.79,3.94-6.59,1.72-9.83,2.24-2.86,.46-5.76-.84-8.71-.24-1.8,.36-1.11-2.08-2.38-2.45,.35-.88,1.37-1,2-1,3.52-.22,7.04-.25,10.56-.1,4.45,.11,9.01-.14,13.34,1.44l-.05-.02Zm-20.22,0c-.5,.02-.91,.41-.95,.91-.05,.37,.28,.45,.56,.3,.44-.22,.62-.76,.39-1.2v-.02l.72-.14-.19-.36-.53,.51Z"/>
  <path class="cls-2" d="M67.97,368.3c-1.25-1.65-1.11-1.48-2.36-.44-1.22,.96-2.83,1.3-4.34,.91-1.77-.51-1.28-2.46-1.66-3.89v2.55c.06,.68-.45,1.28-1.13,1.34-.06,0-.12,0-.19,0-.82,0-1.73,.13-2.17-.72-.63-1.51-.63-3.2,0-4.71,.17-.51,1.79-1.4,3.51-.94,1.64,.47,3.37,.47,5.01,0,2.35-.8,3.46-.31,3.38,2.28-.09,1.2-.05,2.41-.05,3.61Z"/>
  <path class="cls-2" d="M27.49,334.04v7.34c0,1.14,0,1.95-1.57,1.92s-2-.46-1.92-1.95,0-2.85,0-4.28c0-.82,.16-1.7-1-1.83-1-.11-.94-.89-.5-1.26,2.37-1.95,1.52-4.61,1.59-7.01,.05-1.28,.17-2.1,1.77-2.14,1.77,0,1.68,1,1.68,2.19v7.01h-.05Z"/>
  <path class="cls-2" d="M64.97,311.98c-2.68,1.72-5.69,.33-8.54,.87s-6.11-.72-9.21-.24c-.17,0-.41-.41-.61-.63h0c1.28-.34,2.23-.91,1.86-2.48h0c1,.64,2-1.53,3.07,0-.68,.45-1.64,.77-1,2.05,.68-.64,1.39-1.09,.95-2.06,3.9-.86,7.89-.2,11.86-.6,.67,.92-.92,1.22-.54,2.08,.28,.38,.44-.09,.65-.19,1.06-.5,1.62-3.57,3.33-.64v-.05c-.55-.12-.67,.21-.66,.66h0c-.46,0-.61,.27-.66,.66v-.05l-.66,.66,.15-.04Z"/>
  <path class="cls-1" d="M41.66,403.91c1.91,1,3,3.15,5.4,3.58,.88,.16,.63,1.32,.24,2.11s-.82,1.11-1.69,.75c-1.57-.64-3.18-1.2-4.75-1.86-1-.41-.94-1.07-.48-2s1.55-1.43,1.31-2.63l-.03,.05Z"/>
  <path class="cls-2" d="M66.24,348.33c.19-1-.64-2.68,1.66-2.65,2.67,0,2.55,2.09,2.74,3.77s-1.18,1.71-2.46,1.82c-2.41,.22-1.91-1.44-1.94-2.94Z"/>
  <path class="cls-2" d="M41.74,348.32c0,2.29-.82,3.37-2.66,3.42-.82,0-1.6-.15-1.14-1.37,.27-.54,.34-1.16,.2-1.75-.43-.95-1.06-1.79,.14-2.57,.64-.32,1.39-.29,2,.07,.95,.3,1.55,1.22,1.46,2.2Z"/>
  <path class="cls-2" d="M79.62,345.03c.84,2.39-1.79,4.34-.25,6.48,.06,.09-.39,.71-.7,.85-.5,.19-1.06-.04-1.27-.53-.76-1.51-1.79-3.06-1.23-4.79,.49-1.55,2.15-1.45,3.45-2.01Z"/>
  <path class="cls-2" d="M66.77,310.19c1.62-1.76,3.79-.15,5.69-1.1-2.43,4.12-4.71,4.96-7.49,2.89h0c.41,0,.72-.16,.66-.66v.05c.54,.1,.76-.12,.66-.66h0c.56,.12,.67-.21,.66-.66l-.18,.14Z"/>
  <path class="cls-2" d="M21.12,350.93c-2,.34-3.3-.24-2.55-2.49,.32-1-.23-1.74-.11-2.6,1.23,.08,3.06-.79,3.4,.87,.25,1.25,1.38,3.18-.74,4.23Z"/>
  <path class="cls-2" d="M86.05,345.29c1.27,.32,2.59,.19,3,1.89s-.36,3.34-.89,4.94c-.06,.18-.72,.24-1.09,.2-.17,0-.48-.47-.43-.59,1.09-2.2-.99-4.12-.59-6.44Z"/>
  <path class="cls-2" d="M31.82,348.88c-.27,1.15-.47,2.2-2,2.24-3.27,.08-1-2.63-1.88-3.83-.63-.83,.71-1.52,1.61-1.48,1.96,.08,1.56,2.01,2.27,3.07Z"/>
  <path class="cls-2" d="M97.01,346.18c1.25,.57,1.86,1.4,1.2,2.79-.42,.9,0,1.72,.27,2.55-3,.66-3.91-.59-3.6-3.56,.17-1.67,1.04-1.66,2.13-1.78Z"/>
  <path class="cls-2" d="M59.91,291.97c-2.64,.69-1.21-2.32-2.58-2.61l2.32-2c.26,1.12,1.42,1.31,2.08,2-1.27,.36,.07,2.76-1.82,2.61Z"/>
  <path class="cls-2" d="M48.06,346.34c1.33-1,2.37-.57,3.34-.65,.56-.05,1.26,.58,1.08,.79-.94,1.28-1.47,2.82-1.53,4.41,0,.09-.55,.21-.83,.17-.72-.08-.58-.7-.62-1.16-.08-1.34,.56-2.86-1.44-3.55Z"/>
  <path class="cls-1" d="M74.4,303.19c-.08,1-1,1.1-1.72,1.17-1.33,.12-1.55-1.13-1.83-2-.21-.66,.29-1.79,.91-1.45,.96,.48,2.33,.76,2.64,2.28Z"/>
  <path class="cls-1" d="M46.06,391.66c-1.2,.89-2.32,1.37-3.22,.45-1.1-1.13-.48-2.53-.28-4.06,1.83,.82-.4,4.93,3.5,3.6Z"/>
  <path class="cls-2" d="M72.29,312.34c1.08-1.08,1.32-3.14,4.07-3.25-1.87,1.05-2.05,3.04-4.07,3.25Z"/>
  <path class="cls-1" d="M41.69,403.89c-1.18-.73-1.74-1.84-1.09-3.05,.55-1,1.66-.83,2.66-.33,0,1.42-1.86,1.93-1.6,3.4l.03-.02Z"/>
  <path class="cls-2" d="M46.61,311.98l-2,.46q1.62-3.11,3.84-2.87h0c-1.2,.39-2.08,1-1.86,2.48l.02-.07Z"/>
  <path class="cls-2" d="M73.52,379.37c.08-.9,.71-1,1.44-1-.19,.73-.87,.79-1.42,1h-.02Z"/>
  <path class="cls-1" d="M96.81,390.41c-.15,.6-.45,1.06-1.13,1.09-.32,0-.54-.25-.36-.56,.34-.59,.93-.56,1.51-.51l-.02-.02Z"/>
  <path class="cls-2" d="M21.96,333.71l-.1,.19-.27-.2,.19-.18,.18,.19Z"/>
  <path class="cls-3" d="M97.44,292.37c0-.5,0-1,.61-1.1,.08,0,.24,.09,.24,.15,0,.61-.34,.84-.86,.94h.01Z"/>
  <path class="cls-3" d="M60.53,272.74c-.54,2.35-.89,3.94-1.28,5.52-.18,.74-.56,1.4-1.46,1.18-.67-.16-1.07-.84-.91-1.5,.02-.08,.04-.15,.08-.22,.75-2,1.13-3.85-.41-5.68-.32-.45-.22-1.07,.22-1.39,.59-.44,1.38-.47,2-.08,.96,.33,1.64,1.17,1.76,2.17Z"/>
  <path class="cls-3" d="M60.33,270.35c-.77-.29-1.53-.63-2.26-1-.67-.42-2,.66-2.11-.94,0-.19,0-.52,.11-.56,1-.38,1.64,.37,2.45,.61,.91,.24,1.61,.97,1.81,1.89Z"/>
  <path class="cls-3" d="M37.43,334.43c.17,1.66-.07,3.33-.7,4.88-.32,.76-.76,1.5-1.75,1.46-.75-.07-1.38-.6-1.57-1.33-1.3-3.46-1.33-7.26-.09-10.74,.18-.72,.79-1.25,1.52-1.35,1-.07,1.46,.71,1.75,1.45,.73,1.78,1.02,3.72,.84,5.64Z"/>
  <path class="cls-3" d="M53.32,379.38c.24,.43,.08,.97-.36,1.21h-.02c-.28,.16-.61,.08-.56-.29,.04-.5,.45-.89,.95-.91h-.01Z"/>
  <path class="cls-3" d="M53.33,379.39l.53-.51,.19,.36-.73,.14h.01Z"/>
  <path class="cls-3" d="M46.57,312.01c-.22-1.46,.66-2.09,1.86-2.48,.37,1.57-.58,2.14-1.86,2.48Z"/>
  <path class="cls-3" d="M51.46,309.54c.44,1-.27,1.42-.95,2.06-.66-1.28,.3-1.6,1-2.05h-.05Z"/>
  <path class="cls-3" d="M65.6,311.4c.06,.5-.25,.62-.66,.66l.66-.66Z"/>
  <path class="cls-3" d="M66.21,310.75c.1,.54-.12,.76-.66,.66,.05-.39,.2-.68,.66-.66Z"/>
  <path class="cls-3" d="M66.82,310.14c0,.45-.1,.78-.66,.66-.01-.4,.11-.78,.66-.66Z"/>
</svg>