<?xml version="1.0" encoding="UTF-8"?>
<svg id="Layer_1" data-name="Layer 1" xmlns="http://www.w3.org/2000/svg" width="115.08" height="460" viewBox="0 0 115.08 460">
  <defs>
    <style>
      .cls-1 {
        fill: #fefefe;
      }

      .cls-2 {
        fill: #8eaeba;
      }

      .cls-3 {
        fill: #475e16;
      }
    </style>
  </defs>
  <path class="cls-1" d="M108.12,445.54l.45-.52c3.19-6.84,4.7-14.35,4.4-21.9-.28-15.12-.67-30.24,0-45.36,.44-1.47,.62-3,.51-4.53,.17-17.21,.34-34.41,.49-51.61,0-6.62-.39-13.25-.28-19.83,.25-13.33,.06-26.66,.22-39.98,.1-9.14-.6-18.39,.55-27.39,1.23-9.65-.13-18.74-2.38-27.92-.65-2.64-1.92-5.29-1.8-7.89,.08-1.8-.14-2.27-1.64-2.53l-2.78-6.39c.1-1.59-.44-2.67-2.2-2.77,.34-.77-.07-1.38-.4-2-3.65-6.89-5.69-14.33-7.63-21.82-.63-6.66-1.24-13.31-1.9-19.99-.31-1.72,.41-3.47,1.84-4.48-2.77,1.15-2.31-.47-2.4-1.71-.44-6.08-.87-12.15-1.39-18.23-.42-5-1.37-9.9-1.32-14.84s-2.32-9.37-1.26-14.23c0-.14-.4-.37-.62-.56,.58-1,.18-2,.22-3-.76-8.69-1.65-17.38-2.24-26.07-.7-10.46-1.06-21.03-2.44-31.47,1.67-2.05,3-4.17,1.27-6.85,.08-.65-.18-1.29-.69-1.7-.4-1.1,.54-1.27,1.12-1.79,.87-.77,2-1.37,2-2.83,.21-6.26-4.04-11.79-10.13-13.21-4.14-1.11-8.41-1.4-12.63-1.92-7-.84-13.75,.65-20.42,2.35-3.86,1-5.33,4.52-6.23,8-.66,2.61-1.39,5.44,2.06,7,.21,.1,.17,.75,.26,1.15-.49,.24-.69,.83-.46,1.32-1.5,2-1.95,4.16-.35,6.34,.62,.82,.64,1.95,.05,2.8-.59,.69-.59,1.7,0,2.39l-.5,.57-.36,1.21c-1.5,6.23-2.19,12.63-2.07,19.04-.4,5.72-.82,11.41-1.27,17.09-1,.37-1.72,1-1.57,2.16l1.45-.26c-.12,1.17-.23,2.35-.34,3.52-.65,3.65-.91,7.35-.77,11.05l-.39,1.23-.18,1.25v1.25c-.82,7-1.75,13.99-2.41,21.05-.54,5.82-1.76,11.57-1.82,17.44-.22,1.49-.48,3-.65,4.46-1.16,10.36-1.82,20.79-4.16,30.98-2.09,9.14-6.37,17.3-10.69,25.47-2.82,5.04-5.09,10.38-6.75,15.92-3.68,13.4-3.17,26.98-2.27,40.67v1.73c-.2,9.21-.4,18.41-.61,27.61-.35,15.25-.75,30.5-1,45.76-.19,10.78,0,21.59-.39,32.37-.24,5.54-.79,11.18-.91,16.65-.1,5.14,0,10.4-.08,15.62v11.78l-.09,1.36c-.53,.37-.51,.75,0,1.13,0,.83-.06,1.65-.1,2.48-.76,.16-2-.51-2,1,0,1.1-.16,2.65,1.82,2.36-.15,4.17-.16,8.35-.49,12.49-.6,7.46-.35,14.85,1.9,21.99,2.63,8.58,7.71,14.74,17.23,16.42,4.91,.85,9.73,2.22,14.7,2.66,16.12,1.51,32.36,1.17,48.41-1,4.89-.69,9.88-1,14.33-3.51,.37-.23,.73-.47,1.08-.74-.06-.08-.16-.15-.16-.22,0-.86,.84-.71,1.29-1,.37-.17,.76-.29,1.16-.35,3.36-.36,5.42-2.42,6.61-6.59l.18-.13Z"/>
  <path class="cls-2" d="M2.21,397.17v-11.78c.06-5.22,0-10.48,.08-15.62,.12-5.45,.67-11.09,.89-16.63,.42-10.78,.2-21.59,.39-32.37,.27-15.26,.67-30.51,1-45.76,.2-9.21,.4-18.41,.61-27.61-.28-.26-.26-.5,0-.73v-1c1.46-3.92,.49-8,.7-11.99,.39-7-.69-14.12,2-20.99,.82-2.12,.6-2.11,2.55-1.42,.43,.15-.07-1.14,.71-1.33,1.18,1.3-1,4.47,2.51,4.57,.24,0,.48,1.44,.65,2.23,2.04,9.81,2.96,19.82,2.74,29.84-.08,8.8,0,17.61,.59,26.55,1.09-.34,1.44-1.26,2.07-1.87,2.73-2.67,4.68-6.12,8.17-8h0c-.57,1.61-2.23,2.33-3.06,3.72s-1,2.59,1.26,2.43h0c-7,8.93-8.08,10.99-7.89,15.99l4.82-6.75c11.07-15.56,30.36-24.35,50.13-17.99,14.87,4.8,24.11,14.99,29.98,28.91-.82,1.4-.59,2.93-.58,4.43,0,3.85-.45,7.78,.21,11.5,.5,2.86-.88,5.41-.2,8.22,.9,3.74,.31,7.66,0,11.41s1.8,7.33,.13,10.99c2.3,1.28-1.55,4.05,1.25,5.23,.01,.29-.07,.58-.23,.83-2.16,2.17-.42,3.82,.71,5.55h0c0,.49-.07,.98-.19,1.45-.68,1.64-.67,2.18,0,4.49,.18,.64,.22,1.89,0,2-2.89,1.19-1.43,3.11-1,4.91,.55,2.3-.74,4.67-.34,6.75,.53,2.35,.43,4.79-.29,7.09-.37,1.35-.19,2.78,.49,4,1.1,1.55,1.81,3.31,.95,4.77-1.28,2.18-.44,3.8,.44,5.6,.32,.67,.59,1.5,1.34,.3,.67-1.25,1.13-2.6,1.38-4,2.09-7.77,2.81-15.83,2.14-23.85-.21-1.6,.58-3.3-.49-4.82-.09-3.18-.19-6.36-.26-9.53-.33-15.69,1.3-31.44-1.83-47.02,.6-.23,.9-.89,.7-1.5-.79-4.39-1.87-8.73-3.21-12.99-3.51-10.09-10.7-17.6-19.47-23.61-.56-.39-1.42-1-1.89-.77-2.56,1-2.84-1-3.52-2.48l.11-.11c1.83-.45,3,1,4.3,1.72,5.49,3.07,9.87,7.5,14.11,12.13,.26-.37,.48-.54,.47-.69-.12-2.39-2.79-3.26-3.28-5.44,.08-.12,.16-.23,.25-.34,5.9,4.85,8.37,12.15,13.23,18.76,.25-7.23,.66-13.68,.64-20.14,0-11.69,.65-23.36,1.13-35.03,.06-1.34-.32-3.37-1.22-3.92-1.86-1.15-1.66-2.63-1.5-4.16,.28-2.5-.3-4-3.87-3.12l3.93-2.14c-.6-.7-1.52,0-1.91-.76,.73-.73,4,.39,2-2.06-2.11-2.66-3.57-5.78-4.25-9.1-.05-1.1-.98-1.96-2.09-1.91-.06,0-.13,0-.19,.02-1.37,.08-1,1.23-1,2.11,0,.63,.78,1.3-.28,2.06-1-.91-1.78-2.48-3.5-2.47-.67,0-.32-.25-.23-.67,.5-2.49-.42-4.8-1.42-6.95-1.27-2.72-1.16-6.16-3.66-8.18-3.1-2.5-3.25-5.94-3-9.24,.18-1.58,.03-3.18-.44-4.7-1.4-4.27-4.82-8.24-1.8-13.15,.32-.52,0-1.4,.1-2.11s-.24-1.49,.77-1.75c.6,.39,1.01,1.01,1.14,1.71,.19,.61-.08,1.69,1,1.52s.75-1.15,.61-1.78c-.42-1.9-1.11-4-.4-5.69s-.45-2.95-.58-4.41c-.31-3.34-.56-6.68-.81-9.99-.33-4.45-.12-8.99-.63-13.35-1.17-9.99-1.14-20.12-2.34-30.12-.37-3.12-.59-6.1,4-5.9,.22,.19,.65,.42,.62,.56-1.06,4.86,1.3,9.4,1.26,14.23s.9,9.88,1.32,14.84c.52,6.08,1,12.15,1.39,18.23,.09,1.24-.37,2.86,2.4,1.71-1.43,1.01-2.15,2.75-1.84,4.48,.66,6.65,1.27,13.3,1.9,19.99-.94,4.59,0,9.26-.66,13.87-.05,.41,.08,.82,.34,1.13,2.94,2.8,5.05,6.38,8.35,8.82,1.76,.1,2.3,1.18,2.2,2.77-.76,2.86,1.11,4.58,2.78,6.39,1.5,.26,1.72,.73,1.64,2.53-.12,2.6,1.15,5.25,1.8,7.89,2.25,9.18,3.61,18.27,2.38,27.92-1.15,8.99-.45,18.25-.55,27.39-.16,13.32,0,26.65-.22,39.98-.11,6.58,.33,13.21,.28,19.83-.13,17.2-.3,34.41-.49,51.61,.04,1.51-.2,3.02-.7,4.45-1,3.83-1.9,7.68-2.88,11.5-1.84,7.19-6.06,13.14-10.42,18.86-1.43,1.87-2.91,4.93-6.38,4.71-.08-1.2,.44-2.36,1.39-3.09,3.34-2.77,4.92-6.79,7.54-9.99,2.26-2.79,.7-6.22,3.11-9.27-1.02,.14-1.86,.89-2.1,1.89-3.6,8.69-9.99,15.13-17.31,20.6-7.19,5.27-15.9,8.05-24.81,7.92-14.77,0-26.84-6.27-36.81-16.74-2.46-2.58-5.24-5.22-6.2-8.99,1.86-5.95-.8-11.93,.19-17.9,.41-2.52-.79-5.14-.43-7.43,.88-5.63,.73-11.23,.83-16.86,0-.9-.15-1.88,1-2.33,1.39-.4,3.65,.47,3.68-2,0-2-.56-3.91-3.27-3.73-.86-.81,1.06-3-.72-2.71-2.18,.39-1.38-.82-1.39-1.57-.05-5.5-.09-10.99,0-16.48,0-2.33,1.45-4.76-.61-6.91,2.33-3.18,1.1-6.89,1.26-10.3,.29-3.91,.16-7.85-.4-11.73-.36-2.07,.66-4.58-.63-7.49-.31,.62-.52,1-.67,1.36-3.57,9.17-6.7,18.46-6.71,28.47,0,10.99-.08,21.99,0,32.98,0,3.51-1.64,7.23,1.09,10.49,.3,.37,0,1.28-.53,1-1.12-.51-1.12-.07-1.09,.8,.09,2.83,0,5.64,.34,8.47,.58,4.49,1.39,8.95,2.44,13.36l.25,1.58v-.07c1.47,4.41,1.11,9.64,4.5,13.15,4.74,4.91,8.26,10.93,13.87,14.99h0c-1.35-.81-2,1.7-3.51,.68-2.41-1.66-4.67-3.53-6.75-5.59-2.77-2.6-4.68-5.92-7.37-8.78,.71,6.58-2,12.52-1.55,19.15-3.69-1.88-5.2-4.85-6.79-8.74-.59,2.78-1,4.49-1.32,6.19h-.31v-21.99c-1.14,.54-.88,1.4-1.28,1.94Zm10.36,.72l-.58-.62c-.77-1.77,1.7-3.18,.86-4.64-3.74-6.49-5-13.65-6.11-21.09-.7,3.19,.92,6.07,.39,8.99-.31,1.72-1.31,3.18-.36,5.13,1.86,3.81,3,8,5.25,11.6l.62,.62c.18,.51,.16,1.15,.91,1.3,.07-.79-.48-1.03-.98-1.3Zm53.84-86.25c4.08,2,7.94,1,9.99-2.67q-6.71-.27-9.99,2.71c-.14-1.11,.82-1.92,1.11-3.09-3.91,.38-7.52,0-11.08,0-3.33,0-3.91,1.87-5.39,3.79,2.13,.29,4.28,.45,6.43,.47,2.98-.13,6.15,.66,8.93-1.21Zm9.86,48.22c.58-.09,1.66,.49,1.32-.8-.07-.24-1.29-.19-2-.25-.84-.08-1,.52-1.08,1.15-.08,1.22-.08,2.44,0,3.66,.08,.89-.41,2.16,1.16,2.4s2.67,.08,2.83-2.16c1.33,3.09,1.36,3.1,4,2.07q-2.53-1.6-.31-3.17c0-1-3.11-.56-1.25-2.34,.72-.74,1.81-.98,2.77-.6,.82,.43,1.31,1.31,1.24,2.24,.14,1.44-.43,3,1,4.77,.77-2.78-.35-5.59,1.69-7.62-1.84-.86-3.46,.09-5-.19-1.87-.34-3.2-.42-4.23,1.63-.56,1.11-1.9,1.21-2.37-.51,.07-.1,.15-.19,.23-.28Zm-8.66,18.42h0c-.54-.87-1.39-.59-2.18-.67-4.89-.46-9.77,.3-14.68-.23-2.41-.26-5.45-.32-6.24,3.24,2.82-.25,5.6,1.08,8.42,.12h0c2,0,4.08,1.5,6.13,0h0c3.89,2.16,8.79,.91,11.16-2.86-.99-.49-1.76,.19-2.61,.4Zm25.89-43.59c1.73,2.26,2.7,4.93,4,7.42,.44,.83,.68,1.79,1.91,1.49,1.07-.26,1-1.16,1-2,0-5,0-9.99,.12-14.93,0-1.44-.43-2-1.91-2-1.75,0-1.16,1.2-1.29,2.11-.33,2.4,.51,4.89-.59,7.92-1.54-3.33-2.83-6.06-4-8.8-.3-.9-1.18-1.46-2.12-1.36-1,.05-1.15,.71-1.16,1.47-.06,5.28-.09,10.55-.15,15.82,0,1.41,.83,1.62,2,1.62s1.49-.65,1.52-1.73c.05-2.23,.2-4.45,.31-6.68l.36-.34ZM9.3,292.39c1.13-3.06,1.95-6.22,3.43-8.99s2.43-5.24,2.21-8.31c-.3-4.05-.54-8.1-.57-12.15-.08-10.19,0-20.4,0-30.59,0-1.73-.07-4.42-1.5-4.47-1.77-.06-2.64,2.42-3.09,4.3-.2,.79-.24,1.62-.11,2.43,.56,3.69,.5,7.45-.19,11.12-.43,2.68,2.35,5,.28,7.67-.41,.52,1,1.21,.28,2.4-1.05,1.73-1,3.86-1,5.91,0,9.13-.4,18.25-1.15,27.35-.14,1.07-.65,2.5,1.41,3.34Zm45.3-30.54c-1.66,.26-2.65,1.24-2.14,2.9,.66,2.11,.14,4.31,.66,6.32,.74,2.83-.28,5.72,.85,8.53,1.59,4,5.83,5,8.7,2,1.59-1.72,2.5-3.97,2.55-6.32,.32-3.85-.51-7.72,.29-11.55,.24-.73-.15-1.51-.88-1.76-.3-.1-.63-.09-.93,.02-2.98,.85-6.15,.8-9.1-.13Zm-12.31,72.38c-.16-1.81-.41-3.62-.75-5.41-.41-2.64-2.75-4.55-5.42-4.42-3-.08-4.76,1.61-5.59,4.26-1.1,3.41-1.15,7.08-.12,10.51,.59,2.24,2.54,3.85,4.86,4,2.43,.3,4.08-.87,5.35-2.78s1.29-4.01,1.67-6.17Zm15.24,9.31h1.52c2.74-.12,5.12-1.09,6.14-3.73s.09-5.18-2.13-7.11c-.84-.73-1.66-1.49-2.48-2.26-.8-.54-1.02-1.62-.51-2.44,.32-.76,1.2-1.12,1.96-.81,.12,.05,.23,.12,.34,.2,.92,.55,2,.71,2.25-.87,.19-1.4-.56-2.31-1.87-2.11s-2.59-.16-3.87-.07c-2.88,.14-5.11,2.59-4.97,5.47,.04,.89,.32,1.76,.79,2.52,.68,1,1.5,1.91,2.42,2.7,1.15,1.09,3.15,1.88,2.74,3.68-.48,2.11-2.7,1.17-4.15,1.36-1.11,.14-1.7,.33-1.7,1.52s.27,2,1.69,1.89c.61,0,1.27,.05,1.83,.05h0Zm21.31-8.73c0,.13,.07,1.14,.1,2.16,.14,6.63,.14,6.66,6.78,6.47,.93,0,2.56,.73,2.51-1.19-.06-2.09-1.81-1.29-2.78-1.14-1.47,.23-3,.36-2.76-1.48,.2-1.61-1.86-4.34,1.73-4.75,.76-.09,1.42-.14,1.44-1.14,.1-.61-.31-1.19-.92-1.29-.13-.02-.26-.02-.38,0-2.83,.07-1.86-2.05-1.94-3.48-.12-2,1.44-1.52,2.57-1.6h1.83c.64,.08,1.21-.37,1.29-1.01,.01-.1,.01-.21,0-.31,0-.83-.26-1.44-1.18-1.41-2.62,.11-5.62-.9-7.74,.45-1.51,1-.37,3.81-.54,5.81-.08,.96,0,1.98,0,3.91Zm-35.55-1v2.44q0,7.6,7.64,7.21c.41,0,.81-.05,1.21-.12,1-.21,.88-1,.87-1.69s-.07-1.28-.85-1.41c-.5-.1-1.01-.1-1.51,0-2.78,.62-3.54-.58-3.35-3.22,.21-2.84,.19-5.7-.06-8.54-.13-1.43,1.51-4-1.87-4.06-3.64-.05-1.74,2.71-2,4.21-.18,1.72-.21,3.45-.08,5.18Zm27.12,1.41h.06c0,2,.06,4.06,0,6.08-.06,1.52,.4,2.21,2.06,2.18s1.81-.82,1.79-2.11v-10.99c0-1.66-.28-3.39,2.32-3.12,.84,.09,1.22-.51,1.25-1.37s-.29-1.35-1.19-1.37c-2.94-.05-5.88-.13-8.82-.15-1,0-1.43,.66-1.42,1.6-.06,.63,.41,1.19,1.04,1.25,.12,.01,.24,0,.35-.02,2.94-.38,2.72,1.52,2.63,3.43-.11,1.56-.06,3.09-.06,4.61h0Zm-41.92-1.38h0v-7.33c0-1.3-.22-2.11-1.83-2.08s-1.69,.91-1.79,2.16c-.2,2.41,.95,5.13-1.5,7.09-.2,.16-.22,1-.08,1.05,2.64,1.46,1.3,4,1.53,6,.15,1.3,0,2.38,1.88,2.31s1.77-1.21,1.76-2.47c.02-2.24,.03-4.48,.03-6.72h0Zm28.12,26.5c.22,2,3.38,2,3,4.54-.24,1.43,.93,1.87,2.2,1.85,.71,0,1.62,.09,1.85-.71,.52-1.79-1.73-.89-2.07-1.93,2.15-1.27,2.23-1.38,.79-2.49-2.42-1.83,2.58-1.32,.79-2.83-.32-.25-.69-.44-1.09-.53-2.9-.7-2.51,1.72-3,3.35-.08-.57,.15-1.09,0-1.48-.6-1.79-2.25-1.82-3.73-2-.65-.08-1.44,.38-1.14,1,.73,1.57-.35,3-.08,4.46,.17,.9-1,2.41,.81,2.63,1.55,.2,3.48,.77,4.19-1.95-4.17,.98-2.97-1.74-2.52-3.9h0Zm-19.26,5.82c2.09-2.1,3.11-5.52,2.37-7.8-1.3,.93-.92,2.62-1.74,3.76-1.45-.84-.53-3.39-2.25-3.64-1.44-.22-3-.79-4.48-.24-.85,.32-1.39,5.75-.58,6.88,1,1.43,2.35,1,3.62,.4-.2-1.4-2-.79-2.08-1.95,.32-1,1.66-.21,1.91-1.3-1-.7-3.17,.17-2.87-1.84,.19-1.28,1.93-.56,2.87-1.07s1.13,.41,1.34,1c.64,1.93,1.25,3.85,1.89,5.81h0Zm-12.26-8.01c0,1.84-.09,3.53,0,5.2,.06,.76-.82,2,.6,2.25,1.23,.18,.12-1.71,1.18-1.88,1.14,.3,.8,2.36,2,2s.55-2,.69-3c.09-.7,.09-1.41,0-2.11-.12-.83,.55-2.13-.6-2.37-1.49-.31-.17,1.83-1.37,2.06-.98-.38-.79-1.92-2.5-2.1v-.05Zm22.64,5.48c1.67,.2,.54,2.77,2.14,2.15,1.27-.49,.29-2,.24-3s0-2-.13-3c-.14-1.55-1.32-1.53-2.47-1.58-1.34-.05-1.44,.84-1.43,1.81,0,1.73,0,3.45,.08,5.17,0,.2,.33,.4,.68,.8l.89-2.35Zm44.97-1.11c.73,1.31-1.13,3.67,1.58,3.9,2.24,.19,2.38-1.65,2.37-3.38s0-4.06-2.46-4-.7,2.44-1.52,3.53l.03-.05Zm-11.75-17.13c0-.3-.22-.77-1.22-.53-1.43,.36-2.93,.77-2.83,2.6,.11,1.74,.86,3.38,2.09,4.62,.42,.44,1.47-.31,1.28-.74-.86-1.96,.18-3.58,.68-5.95Zm-41.98,3.3c.22,1-1.09,2.79,1.42,2.7,2.14-.08,2.26-1.63,2.31-3.09s-.69-3-2.38-2.86c-1.87,.17-1.74,1.76-1.29,3.25h-.06Zm52.97,10.55c-1.33-.18-2.92-1.07-3.27,.35-.68,2.14-.6,4.45,.24,6.53,.43,.88,1.87,.67,2.85-.07-.62-.89-2.07-.42-2.09-1.72s1.78-.34,1.91-1.61c-3.49-1.16-1.7-2.24,.36-3.48Zm-62.91-10.99c-.27,1.42-.5,2.85,1.86,2.54,1.87-.24,1.89-1.53,1.82-2.87s-.8-2.69-2.38-2.6c-1.8,.1-1.88,1.44-1.26,2.92h-.04Zm15.83,10.38c-1.35-.44-3-.88-3.33,.39-.51,2.1-.8,4.53,.24,6.54,.48,.92,2,.76,3.54-.26-5-.88-2.14-2-.47-3-.7-.87-2.2-.17-2.2-1.58s1.9-.64,2.26-2.1h-.04Zm22.33-10.42c.36,1.18-.75,3.21,1.71,3.07,1.22-.07,2.78-.19,2.61-2.16s-.25-3.84-2.81-3.85c-2.21,0-1.09,1.87-1.47,2.93h-.04Zm22.99,.17c-.07-.68-.11-1.09-.16-1.49-.14-1.2-1.22-2.05-2.41-1.92-.09,.01-.18,.03-.27,.05-1.68,.29-.13,1.61-.29,2.47s1.06,1.41,.65,2.51c-.23,.61-1,1.63,.23,2,1.54,.47,1.46-.95,1.75-1.84,.27-.69,.42-1.37,.54-1.79h-.04Zm-16.52,11c-3.59-1.46-4.1-1.14-3.85,2.13,.07,1.21,.07,2.43,0,3.64,0,.48-.3,1.28,.23,1.31,2.16,.12,.66-3.76,3.42-3.28,.21,0,.23-.95-.29-1.2s-1.83,.2-1.77-1.09,1.66-.52,2.3-1.53l-.04,.02Zm25.6-8.13c-1.22-1.72,1.48-4.91-2.31-5.27-2.08-.2-1,1.7-1.27,2.7-.57,2.66,1.06,2.88,3.62,2.55l-.04,.02Zm-50.37-5.36c1.62,.78,1.42,2,1.47,3.21,0,.64-.25,1.68,.85,1.57,2.51-.24-.2-3.53,2.29-4.08,.4-.09-.33-1.17-1.09-1.36-.2-.02-.41-.02-.61,0-1.02-.12-2.04,.11-2.91,.66Zm11.59-54.21c2.75,.89,1-1.62,1.83-2.37s-1.48-.85-1.62-1.91c-.77,.62-2.24,1.21-2,2s-.49,3.12,1.79,2.28h0Zm-11.5,17.13c-2.22,.11-2.86,1.87-4.28,3.39,2.69,.02,3.05-2.2,4.28-3.39Zm-4.52,91.15c-1.48-.25-2.65-.71-3,.87-.13,.53-.12,1.49,.52,1.49,1.14,.04,1.51-1.19,2.43-2.33l.05-.03Zm8.18-91.35c-2.92,0-3.2,2.08-4.57,3.67,2.69-.1,2.91-2.28,4.52-3.64l.05-.03Zm45.04-20.57c-.63,1-1.49,1.95-.93,3.23,.17,.37,.7,.6,1,.19,.62-1.06,.57-2.38-.12-3.39l.05-.03Zm-15.6,92.32c.06-.69-.38-.83-.93-.81s-1,.16-1.17,.73,.28,.91,.8,1c.53,.17,1.09-.13,1.25-.65,.03-.09,.04-.18,.05-.27Z"/>
  <path class="cls-3" d="M27.89,263.34c-3.49,1.89-5.44,5.34-8.17,8-.63,.61-1,1.53-2.07,1.87-.62-8.94-.67-17.75-.59-26.55,.22-10.02-.7-20.03-2.74-29.84-.17-.79-.41-2.22-.65-2.23-3.55-.1-1.33-3.27-2.51-4.57-.78,.19-.28,1.48-.71,1.33-2-.69-1.73-.7-2.55,1.42-2.64,6.82-1.56,13.93-1.95,20.99-.21,4,.76,8.07-.7,11.99-.9-13.65-1.41-27.26,2.27-40.67,1.66-5.54,3.92-10.88,6.75-15.92,4.33-8.17,8.61-16.32,10.69-25.47,2.34-10.22,3-20.65,4.16-30.98,.17-1.49,.43-3,.65-4.46,1,.59,.76,1.61,.71,2.47-.31,5-.81,9.91-1,14.87-.11,3.26-1.61,6.41-.57,9.74,3.84-10.61,3.53-21.88,5.08-32.83,1.56-11.13,2.91-22.3,2.91-33.74-1.23,0-1.78,1.48-2.91,1v-1.25c.3-.35,.35-.84,.14-1.25l.42-1.31c.34-.2,.7-.37,1-.59,3.11-2.09,3.65-2.11,6.29-.27,.18,.13,.7,.15,.77,0,.79-1.27,2.6-1.38,3.25-2.47,.86-1.45,2.45-2.44,3.28-1.74,1.48,1.25,3.14-.5,3.92,.47,1.41,1.66,3.78,2.14,5.72,1.15,3.21-1.38,5.94-.28,8.85,.37,.67,2.35,1.84,.62,3.5,.64-1.08-.58-2.32-.78-3.52-.56-.53-2.78,.74-3.34,3.36-3.53,1.69-.12,3.2,1.17,4.66,.39,1.72-.92,2,.38,2.69,1.29,1.49,2,2.68,4.59,6,3.5,.23-.08,.49-.11,.81-.19-.27,.74-.75,1.31-.12,2.4,1-3.33,2.59,.46,3.83-.68,0,1,.36,2-.22,3-4.55-.2-4.33,2.78-4,5.9,1.2,9.99,1.17,20.1,2.34,30.12,.51,4.37,.3,8.9,.63,13.35,.25,3.35,.5,6.69,.81,9.99,.13,1.46,1.34,2.58,.58,4.41s0,3.79,.4,5.69c.14,.63,.35,1.62-.61,1.78s-.8-.91-1-1.52c-.13-.7-.54-1.32-1.14-1.71-1,.26-.71,1.09-.77,1.75s.22,1.59-.1,2.11c-3,4.92,.4,8.88,1.8,13.15,.47,1.52,.62,3.12,.44,4.7-.26,3.31-.11,6.75,3,9.24,2.5,2,2.39,5.46,3.66,8.18,1,2.15,1.92,4.46,1.42,6.95-.09,.42-.44,.67,.23,.67,1.72,0,2.45,1.56,3.5,2.47,1.06-.76,.24-1.43,.28-2.06,0-.88-.32-2,1-2.11,1.09-.16,2.11,.6,2.26,1.7,0,.06,.02,.13,.02,.19,.68,3.33,2.13,6.45,4.25,9.1,1.92,2.45-1.32,1.33-2,2.06,.39,.74,1.31,.06,1.91,.76l-3.93,2.14c3.57-.88,4.15,.62,3.87,3.12-.16,1.53-.36,3,1.5,4.16,.9,.55,1.28,2.58,1.22,3.92-.48,11.67-1.17,23.34-1.13,35.03,0,6.46-.39,12.91-.64,20.14-4.87-6.61-7.34-13.91-13.23-18.76-.56-1.04-1.42-1.89-2.46-2.44-.53-.9-1.37-1.57-2.36-1.91l-.64-.59c-3.1-3.6-7.36-5.18-11.64-6.71-.6-.53-1.27-.96-2-1.3-8.99-2.65-18.5-3.04-27.68-1.14-4.28,.9-7.87,3.88-12.41,3.87-.57,0-.12,.62-.07,.94s-.13,1.36,.56,.93,1.58,0,2.27-.53c5.19-3.8,11.23-5.12,17.45-5.73,2.82-.27,5.71,.21,8.53-.06,1.34-.14,1.35,1.79,2.26,1.17,1.14-.79,2.07-.29,3.15-.17,2.73,.31,5,2.26,7.8,2.22l11.55,6.76,.69,.58c.4,1.03,1.3,1.78,2.38,2,.31,1.19,1.24,2.13,2.43,2.44,.49,2.18,3.16,3,3.28,5.44,0,.15-.21,.32-.47,.69-4.24-4.64-8.62-9.06-14.11-12.13-1.34-.75-2.47-2.17-4.31-1.72-2.82-2.62-6.44-2.91-10.06-3.18l9.99,3.29c.68,1.51,1,3.49,3.52,2.48,.47-.18,1.33,.38,1.89,.77,8.76,6,15.99,13.51,19.47,23.61,1.34,4.26,2.41,8.6,3.21,12.99,.2,.61-.1,1.27-.7,1.5l-3.52-10.22c-5.9-13.89-15.13-24.12-29.98-28.91-19.77-6.39-39.06,2.4-50.13,17.99l-4.83,6.78c-.19-5,.85-7,7.89-15.99l.62-.62,1.85-1.83c.6-.44,1.34-.76,1.48-1.78-1.08,.23-1.63,.73-1.45,1.82-1.38-.16-2,.4-1.84,1.83-.5-.09-.7,.11-.62,.61-2.28,.16-2.14-.95-1.26-2.43s2.49-2.11,3.06-3.72c.46-.04,.85-.36,1-.8,0,0-.15-.16-.21-.15-.47,.09-.81,.49-.82,.97ZM49.61,113.94c1.07,0,2-.11,2.18-1.08,.16-1.12-1-1.14-1.67-1.25-.71-.16-1.42,.29-1.57,1,0,.03-.01,.06-.02,.09-.16,.94,.49,1.24,1.08,1.24Zm-7.14,143.8l8.73-2.67c-3.11,.03-6.14,.96-8.73,2.67Z"/>
  <path class="cls-3" d="M2.21,397.17c.4-.54,.14-1.41,1.16-1.9v21.99h.31c.36-1.7,.73-3.41,1.32-6.19,1.59,3.9,3.1,6.87,6.79,8.74-.46-6.63,2.26-12.57,1.55-19.15,2.69,2.87,4.6,6.19,7.37,8.78,2.08,2.06,4.33,3.93,6.75,5.59,1.55,1,2.16-1.49,3.51-.68,.6,1.49,2.07,2.45,3.68,2.4,.8,1.6,2.48,2.57,4.27,2.46,.09,.88,.65,.77,1.24,.6,.9,1.87,2.47,2.15,4.29,1.82,2.48,1.24,4.56,3.85,8,2.25l-8-2.21c-1.32-.85-2.77-1.46-4.3-1.82l-1.24-.61-4.26-2.45c-1.08-1.02-2.33-1.84-3.69-2.44-5.62-4.08-9.13-10.1-13.87-14.99-3.39-3.51-3-8.74-4.5-13.15,2.37,2.65,2.88,6.45,5.52,8.93,1,3.74,3.74,6.38,6.2,8.99,9.99,10.47,21.99,16.76,36.81,16.74,8.91,.13,17.62-2.65,24.81-7.92,7.35-5.47,13.71-11.9,17.31-20.6,.24-1,1.08-1.75,2.1-1.89-2.41,3.06-.85,6.49-3.11,9.27-2.62,3.23-4.2,7.25-7.54,9.99-.93,.74-1.43,1.89-1.35,3.07,3.47,.22,5-2.84,6.38-4.71,4.37-5.72,8.59-11.67,10.42-18.86,1-3.83,1.92-7.68,2.88-11.5-.68,15.14-.29,30.26,0,45.38,.3,7.55-1.21,15.05-4.4,21.9l-.45,.52-.18,.12c-3.58,.47-5.42,3.55-8.07,5.41-.07,1.08,3-1.76,1.46,1.18-.4,.06-.79,.18-1.16,.35-.45,.29-1.28,.14-1.29,1,0,.07,.1,.14,.16,.22-.35,.26-.71,.51-1.08,.74-4.45,2.52-9.44,2.82-14.33,3.51-16.05,2.17-32.29,2.51-48.41,1-5-.44-9.79-1.81-14.7-2.66-9.55-1.68-14.63-7.85-17.32-16.43-2.25-7.16-2.5-14.55-1.9-21.99,.33-4.15,.34-8.33,.49-12.49,.23-1.11,.68-2.2,.18-3.35,0-.83,.07-1.65,.1-2.48v-1.13l.11-1.38Zm34.83,24.59l1.24,.6c4.46,2.58,9.43,4.16,14.56,4.64-1.46-.65-2.99-1.12-4.56-1.41-3.57-.43-6.4-3.07-9.99-3.2-.1-.86-.65-.75-1.24-.59-.07-1.15-.83-1.35-1.78-1.29-.03-.36-.35-.63-.71-.6-.03,0-.06,0-.09,.01-.11,0-.19,.2-.29,.3l1.07,.32c.3,.77,1.07,.94,1.79,1.22Zm45.29-2.41q1.88-.56,.74-3.4c-1.15,.92-.31,2.29-.79,3.33l-1.07,.32c.09,.1,.17,.29,.28,.3,.37,.09,.74-.14,.83-.52,0-.02,0-.04,.01-.06v.03Zm-51.97,31.85c1.95,2.85,3.22,3.15,4.56,1.19-1.66,.35-2.94-.65-4.59-1.22l.03,.03Zm67.43,2.54c0,.07-.12,.15-.1,.19s.13,.13,.2,.2l.11-.39h-.21Z"/>
  <path class="cls-2" d="M88.82,86.14c-1.24,1.14-2.82-2.65-3.83,.68-.63-1.09-.15-1.66,.12-2.4-.32,.08-.58,.11-.81,.19-3.32,1.09-4.51-1.47-6-3.5-.66-.91-1-2.21-2.69-1.29-1.46,.78-3-.51-4.66-.39-2.62,.19-3.89,.75-3.36,3.53v-.05c-2.92-.65-5.65-1.75-8.85-.37-1.94,.99-4.31,.51-5.72-1.15-.78-1-2.44,.78-3.92-.47-.83-.7-2.42,.29-3.28,1.74-.65,1.09-2.46,1.2-3.25,2.47-.07,.11-.59,.09-.77,0-2.64-1.84-3.18-1.82-6.29,.27-.32,.22-.68,.39-1,.59-.14-3.7,.12-7.41,.77-11.05,.91-.58,2.72,.67,2.86-1.6,.42-6.77,.58-13.56,1.6-20.29-1.28,2.72-.56,5.91-2,8.92-.62-3.39,.64-6.56-.71-9.54-.11-6.42,.61-12.84,2.13-19.08,.23,.92,.82,1.66,1.71,1.09,1.09-.7,2.77-.89,2.79-2.82,0-1.2-.29-2.67,1.63-3.07,2.1-.44,4.14-1.16,6.87-1.95-1.76-.56-2.54-2-4-.84-.4,.31-.75,.16-1-.24-1.69-2.61-4.7-3.54-6.9-5.48-.23-.49-.03-1.08,.46-1.32h2.68c3.74,.95,5.08-.45,4.68-4.88,3.29-1.32,6.77-.59,10.14-.89,5.29-.47,10.33,1.45,15.5,2.19,3.49,.49,7.33,.48,9.33,4.35,.37,.53,1.06,.71,1.64,.42,.52,.42,.78,1.08,.69,1.74-.64-.2-1.89-1.13-1.64,.3,.29,1.64-.13,1.32-1.19,1.09-1.09-.19-2.2-.31-3.31-.38l2.69-1.4c-.8-.66-1.4-1.53-1.74-2.51-.13-.45-1.06-1.16-1.27-.33-.4,1.61-2,2-2.66,3.33,0-.87-.17-1.57-1.22-1.78-8.18-1.68-16.58-1.95-24.85-.82-.81,.11-1.64,.15-1.32,1.45,.22,.91-.36,2.11,1.11,2.41,.98,.27,1.98,.45,3,.53,7.2,.1,14.39,.21,21.59,.15,1.45,0,3.23,.59,3.53,1.23,1.27,2.76,3.87,2.75,6.08,3.61,1.38,10.46,1.74,20.99,2.45,31.53,.52,8.69,1.41,17.38,2.17,26.07Zm-8.26-20.81c-.53,3.09,.5,6.07,.59,9.11,0,1.55,1.29,1.66,2.45,1.62,1.51-.06,1.19-1.29,1-2-.55-1.99-.7-4.06-.44-6.11,.4-3.73,.42-7.48,.06-11.21-.36-4.42-3.18-8.44-2-13.07,.29-1.07,.38-2.18,.59-3.27,.4-1.5-.49-3.05-1.99-3.45-.15-.04-.31-.07-.47-.08-2.23-.27-.89,1.75-1,2.66-.47,3.6,.67,7.09,1,10.63,.48,5.04,.55,10.12,.21,15.17Zm-9.24,5.07c-.04,.71-.04,1.41,0,2.12,.1,.58-.81,1.46,.45,1.7,1.06,.19,1.45-.61,1.69-1.39,.24-.57,.29-1.2,.14-1.8-1.41-3.06,.72-6.49-1.05-9.5-.29-.5,.46-.5,.73-.73,2-1.69,.67-3.22-.21-4.81-1.11-2-2.54-.42-3.73-.25-1,.13-2.32,6.16-1.76,7.06,.1,.17,.33,.24,.46,.39,1.99,2.35,2.54,5.27,3.28,7.22Zm-21.48-2.37c.34,.3-.34,2.15,1.39,2.54,2.23,.51,.67-1.55,1.41-2.17s1.28-1.82,2.1-2.51,1.07-1.12,.57-2c-.74-1.01-.62-2.42,.28-3.3,.92-1-.26-1.92-.87-2.59-.78-.85-1.2,.3-1.62,.68-2.56,2.28-4.59,4.88-3.26,9.34Zm27.41-37.98c-.84,1.13-2.11,1.86-3.51,2-5.24,.66-10.52,.88-15.79,.66-3.46-.21-6.88-.66-9.8-2.75-.55-.39-1-1.24-1.63-.16-.5,.87,.2,1.4,.82,1.67,1.89,.93,3.91,1.58,6,1.93,7,.73,13.99,.31,20.94,0,1.95-.05,3.13-.74,2.98-3.36h0Zm-14.07-2.57c-2.83-2.75-5.91-2.16-8.81-2.16-.44-.01-.8,.33-.81,.77,0,.08,0,.15,.03,.23,.08,.34,.5,.94,.59,.91,2.86-.9,5.58,1.51,9,.25Zm-17.74,49.14c0,1.52,.82,2.55,1.84,3.88,.32-2.02-1.15-2.78-1.84-3.88Z"/>
  <path class="cls-3" d="M84.71,19.99c-.57,.29-1.27,.11-1.64-.42-2-3.87-5.85-3.86-9.33-4.35-5.17-.74-10.21-2.66-15.5-2.19-3.38,.3-6.86-.43-10.14,.89-.95,.54-2.37-1.13-2.74,0-.53,1.69-2,3-1.94,4.85h-2.68c-.09-.4,0-1-.26-1.15-3.45-1.52-2.72-4.35-2.06-7,.9-3.52,2.37-7.06,6.23-8C51.31,.89,58.09-.6,65.07,.24c4.23,.52,8.5,.81,12.63,1.92,6.09,1.41,10.35,6.92,10.16,13.17,0,1.46-1.16,2.06-2,2.83-.61,.52-1.55,.69-1.15,1.83Z"/>
  <path class="cls-2" d="M33.98,89.68c1.13,.48,1.68-1,2.91-1,0,11.44-1.35,22.61-2.91,33.74-1.55,10.99-1.24,22.22-5.08,32.83-1-3.34,.46-6.49,.57-9.74,.18-5,.68-9.91,1-14.87,.05-.86,.31-1.88-.71-2.47,.06-5.87,1.28-11.62,1.82-17.44,.67-7.04,1.6-14.03,2.4-21.05Z"/>
  <path class="cls-3" d="M79.27,22.7c1.11,.07,2.21,.19,3.31,.38,1.06,.23,1.48,.55,1.19-1.09-.25-1.43,1-.5,1.64-.3,1.7,2.68,.4,4.8-1.27,6.85-2.21-.86-4.81-.85-6.08-3.61-.3-.64-2.08-1.24-3.53-1.23-7.2,.06-14.39-.05-21.59-.15-1-.09-2-.28-2.97-.56-1.47-.3-.89-1.5-1.11-2.41-.32-1.3,.51-1.34,1.32-1.45,8.27-1.12,16.67-.83,24.84,.86,1,.21,1.22,.91,1.22,1.78l-.06,.06-2,.15c.62,.32,1,1.35,1.91,.79h1.24l.72,.06,1.22-.13Zm-29.86-1.22c.17,.23,.36,.44,.57,.63,.44,.31,.49-.16,.43-.35-.11-.23-.3-.42-.53-.53-.07-.04-.28,.14-.47,.25Z"/>
  <path class="cls-3" d="M40.28,20.05c2.2,1.94,5.21,2.87,6.88,5.48,.25,.4,.6,.55,1,.24,1.48-1.18,2.26,.28,4,.84-2.73,.79-4.77,1.51-6.87,1.95-1.92,.4-1.62,1.87-1.63,3.07,0,1.93-1.7,2.12-2.79,2.82-.89,.57-1.48-.17-1.71-1.09l.36-1.21c.37,0,.6-.15,.5-.57-.59-.69-.59-1.7,0-2.39,.59-.84,.58-1.97-.04-2.8-1.65-2.18-1.2-4.3,.3-6.34Z"/>
  <path class="cls-3" d="M103.67,186.89c-3.3-2.45-5.41-6-8.35-8.82-.26-.31-.39-.72-.34-1.13,.68-4.61-.28-9.28,.66-13.87,1.94,7.49,4,14.93,7.63,21.82,.33,.66,.74,1.27,.4,2.01Z"/>
  <path class="cls-3" d="M37.11,52.39c1.35,3,.09,6.16,.71,9.54,1.4-3,.68-6.21,2-8.92-1,6.73-1.18,13.52-1.6,20.29-.14,2.27-2,1-2.86,1.6,.11-1.17,.22-2.35,.34-3.52l.12-1.9c.41-5.68,.84-11.37,1.29-17.09Z"/>
  <path class="cls-2" d="M101.33,452.25c1.57-2.94-1.53-.1-1.46-1.18,2.65-1.86,4.49-4.94,8.07-5.41-1.19,4.17-3.25,6.23-6.61,6.59Z"/>
  <path class="cls-3" d="M108.65,196.08c-1.67-1.81-3.54-3.53-2.78-6.39,.93,2.13,1.85,4.26,2.78,6.39Z"/>
  <path class="cls-2" d="M2,402.14c.5,1.15,0,2.24-.18,3.35-1.98,.28-1.82-1.26-1.82-2.36,0-1.5,1.24-.83,2-.99Z"/>
  <path class="cls-2" d="M35.78,69.48l-.12,1.9-1.45,.26c-.15-1.21,.56-1.79,1.57-2.16Z"/>
  <path class="cls-2" d="M34.16,87.18c.2,.41,.13,.91-.18,1.25l.18-1.25Z"/>
  <path class="cls-2" d="M2.12,398.53v1.13c-.51-.38-.53-.76,0-1.13Z"/>
  <path class="cls-2" d="M40.04,31.57c.1,.42-.13,.56-.5,.57l.5-.57Z"/>
  <path class="cls-2" d="M108.12,445.54l.45-.52-.45,.52Z"/>
  <path class="cls-3" d="M5.28,246.66c-.3,.23-.32,.47,0,.73-.02-.24,0-.53,0-.73Z"/>
  <path class="cls-1" d="M18.07,395.16c-2.64-2.49-3.15-6.29-5.52-8.93v.07c-.08-.53-.17-1-.25-1.58-1.05-4.41-1.86-8.87-2.44-13.36-.33-2.83-.25-5.64-.34-8.47,0-.87,0-1.31,1.09-.8,.57,.26,.83-.65,.53-1-2.73-3.27-1.07-7-1.09-10.49-.06-10.99,0-21.99,0-32.98,0-9.99,3.14-19.3,6.71-28.47,.15-.38,.36-.74,.67-1.36,1.29,2.91,.27,5.42,.63,7.49,.56,3.88,.69,7.82,.4,11.73-.16,3.42,1.07,7.13-1.26,10.3,2.06,2.15,.63,4.58,.61,6.91-.05,5.5,0,10.99,0,16.48,0,.75-.79,2,1.39,1.57,1.78-.32-.14,1.9,.72,2.7-1.58,.63,.1,2-.64,2.82l-1.47,.88,1.26,.46,.44,1.55c-1.11,.45-.94,1.43-1,2.33-.1,5.63,0,11.23-.83,16.86-.36,2.29,.84,4.91,.43,7.43-.84,5.95,1.82,11.93-.04,17.88Z"/>
  <path class="cls-1" d="M103.1,289.6l3.52,10.22c3.13,15.58,1.5,31.33,1.83,47.02,.07,3.18,.17,6.36,.26,9.53v5.44c0,9.21-.5,18.33-4.35,26.91-.88-1.8-1.72-3.42-.44-5.6,.86-1.46,.15-3.22-.95-4.77-.68-1.22-.86-2.65-.49-4,.72-2.3,.82-4.74,.29-7.09-.4-2.08,.89-4.45,.34-6.75-.44-1.8-1.9-3.72,1-4.91,.25-.11,.21-1.36,0-2-.66-2.31-.67-2.85,0-4.49,.12-.47,.19-.96,.19-1.45,.46-.28,.79-.64,.59-1.22,0-.1-.27-.14-.41-.2,0,.48-.09,1-.14,1.45-1.13-1.73-2.87-3.38-.71-5.55,.16-.24,.24-.54,.23-.83-2.8-1.18,1-3.95-1.25-5.23,1.67-3.66-.47-7.27-.13-10.99s.94-7.68,0-11.41c-.68-2.81,.7-5.36,.2-8.22-.66-3.73-.18-7.66-.21-11.5,.04-1.47-.19-3,.63-4.4Z"/>
  <path class="cls-1" d="M9.3,292.39c-2.06-.84-1.55-2.27-1.46-3.37,.75-9.1,1.16-18.18,1.16-27.35,0-2.05,0-4.18,1-5.91,.73-1.19-.69-1.88-.28-2.4,2.07-2.64-.71-5-.28-7.67,.69-3.67,.75-7.43,.19-11.12-.13-.81-.09-1.64,.11-2.43,.45-1.88,1.32-4.36,3.09-4.3,1.43,.05,1.5,2.74,1.5,4.47v30.59c0,4.06,.27,8.11,.57,12.15,.22,3.07-.79,5.64-2.21,8.31s-2.26,5.97-3.39,9.02Z"/>
  <path class="cls-3" d="M54.6,261.85c2.95,.94,6.12,1,9.1,.17,.72-.27,1.52,.09,1.79,.81,.11,.3,.12,.63,.02,.93-.8,3.84,0,7.71-.29,11.55-.05,2.35-.96,4.59-2.55,6.32-2.88,3-7.12,1.93-8.7-2-1.13-2.81-.11-5.7-.85-8.53-.52-2,0-4.21-.66-6.32-.49-1.7,.51-2.68,2.14-2.94Zm5.43,8c-.7,.82-3.46-.23-2.49,1.76,.97,1.86,1.11,4.03,.38,6-.24,.53-.01,1.16,.52,1.41,.06,.03,.12,.05,.18,.06,.57,.19,1.19-.12,1.38-.69,.01-.04,.02-.08,.03-.13,.45-1.66,1.26-3.38,1.11-5-.15-1.78,.84-4.24-1.78-5.23-.74-.22-1.49-.39-2.26-.5-.09,.27-.14,.56-.13,.85,.27,1.08,1.23,.29,1.8,.61s1.02,.17,1.26,.86Z"/>
  <path class="cls-3" d="M93.08,335.1c-.11,2.23-.26,4.45-.31,6.68,0,1.08-.26,1.74-1.52,1.73s-2-.21-2-1.62c.06-5.27,.09-10.54,.15-15.82,0-.76,.21-1.42,1.16-1.47,.94-.1,1.82,.46,2.12,1.36,1.22,2.75,2.51,5.48,4,8.8,1.1-3,.26-5.52,.59-7.92,.13-.91-.46-2.09,1.29-2.11,1.48,0,1.94,.53,1.91,2-.09,5-.09,9.99-.12,14.93,0,.8,.1,1.7-1,2-1.23,.3-1.47-.66-1.91-1.49-1.31-2.49-2.28-5.16-4-7.42-.15-.12-.39-.37-.43-.35-.24,.16-.18,.4,.07,.69Z"/>
  <path class="cls-3" d="M42.29,334.23c-.38,2.16-.43,4.32-1.67,6.19s-2.92,3.08-5.35,2.78c-2.31-.14-4.27-1.76-4.86-4-1.03-3.44-.98-7.1,.12-10.51,.83-2.65,2.55-4.34,5.59-4.26,2.66-.13,4.99,1.76,5.42,4.39,.34,1.79,.59,3.6,.75,5.42Zm-4,.27c.14-2.04-.14-4.08-.84-6-.26-.76-.8-1.51-1.76-1.4-.73,.13-1.31,.67-1.5,1.38-.74,1.91-.98,3.97-.7,6,.37,2.15-.21,5.7,2.62,5.63,2.4-.06,2.09-3.43,2.19-5.61h0Z"/>
  <path class="cls-3" d="M57.53,343.54h-1.83c-1.42,.12-1.7-.73-1.69-1.89s.59-1.38,1.7-1.52c1.45-.19,3.67,.75,4.15-1.36,.41-1.8-1.59-2.59-2.74-3.68-.92-.79-1.74-1.7-2.42-2.7-1.53-2.45-.79-5.67,1.66-7.2,.76-.48,1.63-.75,2.52-.79,1.28-.09,2.53,.27,3.87,.07s2.06,.71,1.87,2.11c-.22,1.58-1.33,1.42-2.25,.87-.66-.51-1.6-.38-2.1,.27-.08,.1-.15,.22-.2,.34-.51,.82-.29,1.89,.51,2.44,.82,.77,1.64,1.53,2.48,2.26,2.22,1.93,3.17,4.37,2.13,7.11s-3.4,3.61-6.14,3.73h-1.52v-.05Z"/>
  <path class="cls-3" d="M78.84,334.81c0-1.91-.07-2.93,0-3.94,.17-2-1-4.84,.54-5.81,2.12-1.35,5.12-.34,7.74-.45,.92,0,1.18,.58,1.18,1.41,.09,.63-.34,1.22-.98,1.32-.1,.02-.21,.02-.31,0h-1.83c-1.13,.08-2.69-.36-2.57,1.6,.08,1.43-.89,3.55,1.94,3.48,.61-.11,1.19,.3,1.3,.91,.02,.13,.02,.26,0,.38,0,1-.68,1-1.44,1.14-3.59,.41-1.53,3.14-1.73,4.75-.22,1.84,1.29,1.71,2.76,1.48,1-.15,2.72-.95,2.78,1.14,0,1.92-1.58,1.16-2.51,1.19-6.64,.19-6.64,.16-6.78-6.47,.03-1.01-.08-2.02-.09-2.13Z"/>
  <path class="cls-3" d="M43.28,333.81c-.13-1.72-.1-3.46,.07-5.18,.27-1.5-1.63-4.26,2-4.21,3.38,.05,1.74,2.63,1.87,4.06,.25,2.84,.27,5.69,.06,8.54-.19,2.64,.57,3.84,3.35,3.22,.5-.1,1.01-.1,1.51,0,.78,.13,.84,.79,.85,1.41s.09,1.48-.87,1.69c-.4,.07-.8,.11-1.21,.12q-7.65,.39-7.64-7.21c.02-.8,.02-1.62,0-2.44Z"/>
  <path class="cls-3" d="M70.41,335.23v-4.57c.09-1.91,.31-3.81-2.63-3.43-.62,.14-1.23-.26-1.37-.88-.03-.12-.03-.23-.02-.35,0-.94,.43-1.6,1.42-1.6,3,0,5.89,.1,8.82,.15,.9,0,1.22,.49,1.19,1.37s-.41,1.46-1.25,1.37c-2.6-.27-2.33,1.46-2.32,3.12v10.99c0,1.29-.2,2.08-1.79,2.11s-2.12-.66-2.06-2.18c.08-2,0-4.05,0-6.08v-.03Z"/>
  <path class="cls-3" d="M59.06,380.78c-2.09,1.45-4.09,0-6.09,0l.61-.61,.61-.61c.08-.02,.16-.06,.23-.11v-.17l-.22,.32c-.32-.02-.59,.23-.61,.55,0,.02,0,.04,0,.06l-.62,.57c-2.82,1-5.6-.37-8.42-.12,.79-3.56,3.83-3.5,6.24-3.24,4.91,.53,9.79-.23,14.68,.23,.79,.08,1.64-.2,2.18,.67l-.63,.62-.61,.61c-.08,.03-.15,.07-.22,.11v.17l.22-.32c.32,.02,.59-.23,.61-.55,0-.02,0-.03,0-.05l.62-.62c.85-.21,1.62-.89,2.58-.42-2.37,3.76-7.27,5.02-11.16,2.86,.96-.28,1.74-1.01,2.09-1.95-1.09,.37-1.41,1.37-2.09,2Zm-10.88-1c-.16-.56-.23-.9-.61-.67-.25,.13-.43,.36-.52,.62-.06,.3,.18,.52,.53,.38,.21-.1,.41-.21,.6-.33Z"/>
  <path class="cls-3" d="M28.5,333.86v6.72c0,1.26,.14,2.4-1.76,2.47s-1.73-1-1.88-2.31c-.23-2,1.11-4.53-1.53-6-.14-.07-.12-.89,.08-1.05,2.45-2,1.3-4.68,1.5-7.09,.1-1.25,.18-2.12,1.79-2.16s1.85,.78,1.83,2.08c-.05,2.44,0,4.89,0,7.33h-.03Z"/>
  <path class="cls-3" d="M76.05,360.14c.47,1.72,1.81,1.62,2.37,.51,1-2.05,2.36-2,4.23-1.63,1.53,.28,3.15-.67,5,.19-2,2-.92,4.84-1.69,7.62-1.4-1.74-.83-3.33-1-4.77,.09-.93-.39-1.83-1.22-2.27-.96-.38-2.05-.14-2.77,.6-1.86,1.78,1.22,1.31,1.25,2.34q-2.22,1.57,.31,3.17c-2.64,1-2.67,1-4-2.07-.16,2.24-1.38,2.37-2.83,2.16s-1.08-1.51-1.16-2.4c-.08-1.22-.08-2.44,0-3.66,0-.63,.24-1.23,1.08-1.15,.69,.06,1.91,0,2,.25,.34,1.29-.74,.71-1.32,.8-.08-.41-.28-.67-.73-.47-.1,.11-.17,.24-.18,.39,.21,.14,.43,.27,.66,.39Zm3,2.85c-.06-.43-.18-.71-.57-.56-.16,.1-.28,.25-.33,.43-.12,.31,0,.62,.34,.59s.36-.32,.47-.46h.09Z"/>
  <path class="cls-3" d="M66.41,311.64c-2.79,1.87-6,1.08-8.99,1.23-2.15-.02-4.3-.18-6.43-.47,1.48-1.92,2.06-3.79,5.39-3.79,3.57,0,7.18,.36,11.08,0-.29,1.17-1.25,2-1.11,3.09l.06-.06Z"/>
  <path class="cls-3" d="M56.62,360.37c-.45,2.16-1.67,4.88,2.56,3.89-.71,2.72-2.64,2.15-4.19,1.95-1.8-.22-.64-1.73-.81-2.63-.27-1.46,.81-2.89,.08-4.46-.3-.64,.49-1.1,1.14-1,1.48,.2,3.13,.23,3.73,2,.13,.39-.1,.91,0,1.48,.47-1.63,.08-4.05,3-3.35,.4,.09,.77,.27,1.09,.53,1.81,1.52-3.24,1-.84,2.85,1.44,1.11,1.36,1.22-.79,2.49,.34,1,2.59,.14,2.07,1.93-.23,.8-1.14,.71-1.85,.71-1.27,0-2.44-.42-2.2-1.85,.36-2.53-2.77-2.52-2.99-4.54Z"/>
  <path class="cls-3" d="M37.36,366.2c-.64-2-1.25-3.88-1.89-5.78-.21-.61-.27-1.6-1.34-1s-2.68-.21-2.87,1.07c-.3,2,1.91,1.14,2.87,1.84-.25,1.09-1.59,.26-1.91,1.3,0,1.16,1.88,.55,2.08,1.95-1.27,.56-2.58,1-3.62-.4-.81-1.13-.27-6.56,.58-6.88,1.5-.55,3,0,4.48,.24,1.72,.25,.8,2.8,2.25,3.64,.82-1.14,.44-2.83,1.74-3.76,.74,2.26-.28,5.68-2.37,7.78Z"/>
  <path class="cls-1" d="M12,397.24c-2.25-3.65-3.39-7.8-5.25-11.6-1-1.95,0-3.41,.36-5.13,.53-2.9-1.09-5.78-.39-8.99,1.1,7.44,2.37,14.6,6.11,21.09,.84,1.46-1.63,2.87-.86,4.64h.03Z"/>
  <path class="cls-3" d="M104.34,388.78c3.85-8.59,4.38-17.7,4.35-26.91l.54-.66h0c.67,8.01-.05,16.08-2.14,23.85-.25,1.4-.71,2.75-1.38,4-.77,1.19-1.05,.36-1.37-.27Z"/>
  <path class="cls-3" d="M25.1,358.24c1.71,.18,1.52,1.72,2.53,2.1,1.2-.23-.12-2.37,1.37-2.06,1.15,.24,.48,1.54,.6,2.37,.09,.7,.09,1.41,0,2.11-.14,1,.54,2.58-.69,3s-.85-1.65-2-2c-1.06,.17,.05,2.06-1.18,1.88-1.42-.22-.54-1.49-.6-2.25-.14-1.6-.03-3.31-.03-5.15Z"/>
  <path class="cls-3" d="M66.38,311.68q3.3-3,9.99-2.71c-2,3.67-5.9,4.7-9.99,2.67v.04Z"/>
  <path class="cls-3" d="M47.74,363.72l-.89,2.33c-.35-.4-.67-.6-.68-.8-.06-1.72-.07-3.44-.08-5.17,0-1,.09-1.86,1.43-1.81,1.15,0,2.33,0,2.47,1.58,.09,1,.08,2,.13,3s1,2.52-.24,3c-1.6,.64-.47-1.93-2.14-2.13Z"/>
  <path class="cls-3" d="M92.68,362.61c.82-1.09-1.09-3.5,1.49-3.52s2.45,2.16,2.46,4-.13,3.57-2.37,3.38c-2.71-.19-.85-2.55-1.58-3.86Zm3.13,.39c-.1-.85,.23-2.25-1.08-2.39s-.85,1.18-.81,1.89c0,.91-.56,2.35,.91,2.5,1.05,.11,.94-1.08,.98-2h0Z"/>
  <path class="cls-3" d="M80.96,345.43c-.52,2.33-1.56,4-.68,5.95,.19,.43-.86,1.18-1.28,.74-1.21-1.24-1.94-2.88-2.04-4.62-.1-1.83,1.4-2.24,2.83-2.6,.97-.24,1.17,.23,1.17,.53Z"/>
  <path class="cls-3" d="M19.39,347.8c.74-.82-.94-2.19,.64-2.82,2.71-.17,3.3,1.78,3.27,3.74,0,2.44-2.29,1.57-3.68,2-.15-.52-.3-1-.44-1.55l.21-1.37Z"/>
  <path class="cls-3" d="M39.04,348.73c-.45-1.49-.58-3.08,1.35-3.25,1.69-.14,2.43,1.31,2.38,2.86s-.17,3-2.31,3.09c-2.48,.09-1.2-1.7-1.42-2.7Z"/>
  <path class="cls-3" d="M91.95,359.28c-2.1,1.24-3.89,2.32-.36,3.48-.13,1.27-1.93,.32-1.91,1.61s1.47,.83,2.09,1.72c-1,.74-2.42,.95-2.85,.07-.84-2.08-.92-4.39-.24-6.53,.39-1.42,1.98-.53,3.27-.35Z"/>
  <path class="cls-3" d="M29.08,348.28c-.62-1.51-.54-2.82,1.3-2.93,1.58-.09,2.31,1.11,2.38,2.6s0,2.63-1.82,2.87c-2.36,.31-2.13-1.12-1.86-2.54Z"/>
  <path class="cls-3" d="M44.91,358.65c-.36,1.46-2.23,.67-2.22,2.1s1.5,.71,2.2,1.58c-1.67,.94-4.49,2.11,.47,3-1.51,1-3.06,1.18-3.54,.26-1-2-.75-4.44-.24-6.54,.31-1.26,1.98-.84,3.33-.4Z"/>
  <path class="cls-3" d="M67.23,348.22c.38-1.06-.74-2.94,1.51-2.94,2.56,0,2.66,2,2.81,3.85s-1.39,2.09-2.61,2.16c-2.46,.14-1.35-1.89-1.71-3.07Z"/>
  <path class="cls-3" d="M90.22,348.38c-.12,.42-.29,1.1-.5,1.77-.29,.89-.21,2.31-1.75,1.84-1.21-.36-.46-1.38-.23-2,.41-1.1-.79-1.71-.65-2.51s-1.39-2.18,.29-2.47c1.17-.28,2.35,.43,2.63,1.6,.02,.09,.04,.18,.05,.27,.05,.41,.09,.82,.16,1.5Z"/>
  <path class="cls-3" d="M73.7,359.36c-.64,1-2.18,.18-2.24,1.51s1.12,.79,1.77,1.09,.5,1.24,.29,1.2c-2.76-.48-1.26,3.4-3.42,3.28-.53,0-.25-.83-.23-1.31,.07-1.21,.07-2.43,0-3.64-.27-3.27,.24-3.59,3.83-2.13Z"/>
  <path class="cls-3" d="M99.3,351.24c-2.56,.33-4.19,.11-3.58-2.57,.23-1-.81-2.9,1.27-2.7,3.79,.36,1.09,3.55,2.31,5.27Z"/>
  <path class="cls-3" d="M48.88,345.9c.86-.56,1.89-.81,2.91-.7,.2-.02,.41-.02,.61,0,.76,.19,1.49,1.27,1.09,1.36-2.49,.55,.22,3.84-2.29,4.08-1.1,.11-.83-.93-.85-1.57-.05-1.15,.15-2.39-1.47-3.17Z"/>
  <path class="cls-3" d="M60.48,291.69c-2.28,.84-1.58-1.54-1.81-2.31s1.25-1.35,2-2c.14,1.06,2.48,1.11,1.62,1.91s.94,3.29-1.81,2.4Z"/>
  <path class="cls-3" d="M48.97,308.82c-1.18,1.16-1.54,3.38-4.28,3.39,1.37-1.49,2.01-3.25,4.28-3.39Z"/>
  <path class="cls-1" d="M44.41,400c-.92,1.14-1.29,2.37-2.51,2.36-.64,0-.65-1-.52-1.49,.38-1.58,1.6-1.1,3.03-.87Z"/>
  <path class="cls-3" d="M52.58,308.65c-1.65,1.36-1.83,3.54-4.57,3.67,1.37-1.59,1.65-3.66,4.57-3.67Z"/>
  <path class="cls-1" d="M97.63,288.08c.67,1.04,.67,2.38,0,3.42-.27,.41-.8,.18-1-.19-.49-1.28,.37-2.21,1-3.23Z"/>
  <path class="cls-1" d="M82.08,380.37c-.03,.55-.5,.97-1.05,.94-.08,0-.17-.02-.25-.05-.52-.07-1-.34-.8-1s.64-.71,1.17-.73,.99,.14,.93,.83Z"/>
  <path class="cls-3" d="M108.72,361.1v-4.72c1.07,1.52,.28,3.22,.49,4.82h0c-.12-.14-.32-.18-.49-.1Z"/>
  <path class="cls-1" d="M12.58,397.89c.5,.27,1.05,.51,.94,1.27-.75-.15-.73-.79-.91-1.3l-.03,.03Z"/>
  <path class="cls-3" d="M12.36,384.72c.08,.53,.17,1.05,.25,1.58-.09-.52-.17-1.05-.25-1.58Z"/>
  <path class="cls-1" d="M12,397.27l.62,.62h0l-.62-.62Z"/>
  <path class="cls-2" d="M77.9,254.29c-2.82,0-5.07-1.91-7.8-2.22-1.08-.12-2-.62-3.15,.17-.91,.62-.92-1.31-2.26-1.17-2.82,.27-5.71-.21-8.53,.06-6.22,.61-12.26,1.93-17.45,5.73-.69,.5-1.5,.06-2.27,.53s-.5-.52-.56-.93-.5-.94,.07-.94c4.55,0,8.14-3,12.41-3.87,9.18-1.91,18.7-1.52,27.69,1.13,.73,.33,1.4,.77,2,1.3l-.17,.21Z"/>
  <path class="cls-2" d="M78.1,254.08c4.29,1.53,8.55,3.11,11.64,6.71l-.29,.26-11.55-6.76,.2-.21Z"/>
  <path class="cls-2" d="M49.61,113.94c-.59,0-1.24-.27-1.08-1.24,.11-.72,.78-1.22,1.5-1.11,.03,0,.06,0,.09,.02,.69,.11,1.83,.13,1.67,1.25-.15,.94-1.11,1.08-2.18,1.08Z"/>
  <path class="cls-2" d="M79.24,258.45l-9.99-3.29c3.63,.27,7.25,.56,10.06,3.18l-.07,.11Z"/>
  <path class="cls-2" d="M42.48,257.73c2.6-1.71,5.63-2.64,8.73-2.67l-8.73,2.67Z"/>
  <path class="cls-2" d="M67.6,82.95c1.21-.21,2.46,0,3.54,.59-1.66,0-2.83,1.71-3.5-.64l-.04,.05Z"/>
  <path class="cls-2" d="M94.95,266.07c-1.2-.32-2.13-1.26-2.42-2.47,.06-.11,.13-.21,.21-.31,1.04,.55,1.9,1.4,2.46,2.44-.09,.12-.17,.22-.25,.34Z"/>
  <path class="cls-2" d="M90.38,261.38c.99,.33,1.83,1.01,2.36,1.91-.08,.1-.15,.2-.21,.31-1.08-.22-1.98-.97-2.39-2,.07-.08,.15-.15,.24-.22Z"/>
  <path class="cls-2" d="M28.53,267.04c-.18-1.09,.37-1.59,1.45-1.82-.14,1-.88,1.34-1.48,1.78l.03,.04Z"/>
  <path class="cls-2" d="M26.69,268.85c-.2-1.43,.46-2,1.84-1.83h0l-1.88,1.83h.04Z"/>
  <path class="cls-2" d="M27.89,263.34c0-.49,.33-.91,.81-1,.06,0,.22,.14,.21,.15-.14,.44-.54,.76-1,.8l-.02,.05Z"/>
  <path class="cls-2" d="M26.07,269.48c-.08-.5,.12-.7,.62-.61h0l-.62,.62h0Z"/>
  <path class="cls-2" d="M89.74,260.79l.64,.59c-.09,.08-.17,.16-.24,.25l-.69-.58,.29-.26Z"/>
  <path class="cls-2" d="M38.25,422.36c3.64,.13,6.47,2.77,9.99,3.2,1.57,.28,3.1,.76,4.56,1.41-5.13-.47-10.1-2.06-14.56-4.64v.03Z"/>
  <path class="cls-2" d="M44.41,421.76l8,2.21c-3.42,1.6-5.5-1-8-2.25v.04Z"/>
  <path class="cls-2" d="M30.34,451.17c1.67,.53,2.93,1.52,4.56,1.19-1.34,1.96-2.61,1.66-4.56-1.19Z"/>
  <path class="cls-2" d="M82.29,419.25c.48-1-.36-2.41,.79-3.33q1.14,2.84-.74,3.4l-.05-.07Z"/>
  <path class="cls-2" d="M44.43,421.67c-1.82,.33-3.39,0-4.29-1.82h0c1.53,.36,2.98,.97,4.3,1.82h0Z"/>
  <path class="cls-2" d="M34.61,416.83l4.26,2.45h0c-1.79,.09-3.46-.9-4.24-2.52l-.02,.07Z"/>
  <path class="cls-2" d="M34.63,416.76c-1.6,.04-3.05-.92-3.65-2.4h0c1.36,.6,2.6,1.42,3.69,2.44l-.04-.04Z"/>
  <path class="cls-2" d="M35.23,420.48c1-.06,1.71,.14,1.78,1.29h0c-.72-.25-1.49-.42-1.83-1.22l.05-.07Z"/>
  <path class="cls-2" d="M82.34,419.32c-.07,.37-.42,.62-.8,.56h-.04c-.11,0-.19-.21-.28-.31l1.07-.32,.05,.07Z"/>
  <path class="cls-2" d="M35.21,420.51l-1.07-.32c.1-.1,.18-.29,.29-.3,.36-.08,.71,.15,.79,.5,0,.03,.01,.06,.01,.09l-.02,.03Z"/>
  <path class="cls-2" d="M38.87,419.28l1.24,.61h0c-.59,.17-1.15,.28-1.24-.6h0Z"/>
  <path class="cls-2" d="M36.98,421.76c.59-.16,1.14-.27,1.24,.59h0l-1.24-.6h0Z"/>
  <path class="cls-1" d="M97.8,453.74h.21l-.11,.39c-.07-.07-.16-.12-.2-.2s.06-.12,.1-.19Z"/>
  <path class="cls-1" d="M80.57,65.33c.36-5.05,.3-10.13-.16-15.17-.34-3.55-1.48-7-1-10.63,.12-.91-1.22-2.93,1-2.66,1.55,.15,2.69,1.52,2.54,3.07-.01,.16-.04,.32-.08,.47-.21,1.09-.3,2.2-.59,3.27-1.23,4.64,1.59,8.65,2,13.07,.34,3.73,.31,7.49-.11,11.21-.26,2.03-.12,4.08,.42,6.06,.21,.76,.53,2-1,2-1.16,0-2.4-.07-2.45-1.62-.07-3-1.1-5.98-.57-9.06Z"/>
  <path class="cls-3" d="M71.32,70.4c-.74-2-1.29-4.87-3.27-7.22-.13-.15-.36-.22-.46-.39-.56-.9,.81-6.93,1.76-7.06,1.19-.17,2.61-1.77,3.73,.23,.88,1.59,2.24,3.12,.21,4.81-.27,.23-1,.23-.73,.73,1.77,3-.36,6.45,1.05,9.5,.15,.6,.1,1.23-.14,1.8-.24,.78-.63,1.58-1.69,1.39-1.26-.24-.35-1.12-.45-1.7-.04-.7-.04-1.4,0-2.1Z"/>
  <path class="cls-3" d="M49.84,68.03c-1.33-4.47,.7-7,3.26-9.35,.42-.38,.84-1.53,1.62-.68,.61,.67,1.79,1.55,.87,2.59-.9,.88-1.02,2.28-.28,3.3,.5,.89,.18,1.38-.57,2s-1.27,1.82-2.1,2.51,.82,2.68-1.41,2.17c-1.73-.38-1.05-2.23-1.39-2.53Z"/>
  <path class="cls-3" d="M77.26,30.04c.15,2.62-1,3.31-3,3.39-7,.29-13.99,.71-20.94,0-2.08-.34-4.1-.99-6-1.93-.62-.27-1.32-.8-.82-1.67,.61-1.08,1.08-.23,1.63,.16,2.93,2.09,6.35,2.54,9.8,2.75,5.27,.22,10.55,0,15.79-.66,1.41-.15,2.7-.89,3.53-2.04Z"/>
  <path class="cls-1" d="M43.42,18.76c0-1.86,1.41-3.16,1.94-4.85,.37-1.16,1.79,.51,2.74,0,.4,4.4-.94,5.8-4.68,4.85Z"/>
  <path class="cls-3" d="M63.19,27.48c-3.43,1.26-6.15-1.15-8.99-.21-.09,0-.51-.57-.59-.91-.12-.42,.13-.86,.55-.97,.07-.02,.15-.03,.23-.03,2.9-.04,5.98-.63,8.8,2.12Z"/>
  <path class="cls-1" d="M79.27,22.7l-1.23,.1c-.22-.32-.45-.36-.72-.06h-1.24c0-.31,.07-.63,.1-.94l.06-.06c.61-1.31,2.26-1.72,2.66-3.33,.21-.83,1.14-.12,1.27,.33,.35,.99,.97,1.87,1.79,2.53l-2.69,1.43Z"/>
  <path class="cls-3" d="M45.45,76.62c.69,1.1,2.16,1.86,1.84,3.88-1.02-1.33-1.84-2.36-1.84-3.88Z"/>
  <path class="cls-2" d="M76.18,21.82c0,.31-.06,.63-.1,.94-1,.56-1.29-.47-1.91-.79l2.01-.15Z"/>
  <path class="cls-2" d="M49.4,21.48c.19-.11,.4-.29,.47-.25,.23,.11,.42,.3,.53,.53,.06,.19,0,.66-.43,.35-.21-.19-.4-.4-.57-.63Z"/>
  <path class="cls-2" d="M77.32,22.74c.27-.3,.5-.26,.72,.06l-.72-.06Z"/>
  <path class="cls-2" d="M19.39,347.8l-.21,1.34-1.26-.46,1.47-.88Z"/>
  <path class="cls-2" d="M104.35,347.8c0-.48,.09-1,.14-1.45,.14,.06,.38,.1,.41,.2,.2,.58-.13,.94-.59,1.22l.04,.03Z"/>
  <path class="cls-2" d="M108.72,361.1c.16-.1,.37-.08,.51,.06l-.54,.66,.03-.72Z"/>
  <path class="cls-2" d="M60.03,269.84c-.24-.67-.84-.58-1.26-.82s-1.53,.47-1.8-.61c0-.29,.04-.58,.13-.85,.76,.11,1.52,.28,2.26,.5,2.62,1,1.63,3.45,1.78,5.23,.15,1.62-.66,3.34-1.11,5-.12,.59-.69,.97-1.28,.85-.04,0-.08-.02-.13-.03-.57-.15-.91-.72-.76-1.29,.02-.06,.04-.12,.06-.18,.73-1.96,.59-4.14-.38-6-.97-2.05,1.79-1,2.49-1.8Z"/>
  <path class="cls-2" d="M93.08,335.1c-.25-.25-.31-.53,0-.76,0,0,.28,.23,.43,.35l-.43,.41Z"/>
  <path class="cls-2" d="M38.3,334.5c-.1,2.18,.21,5.55-2.18,5.61-2.83,.07-2.25-3.48-2.62-5.63-.28-2.03-.04-4.09,.7-6,.19-.71,.77-1.25,1.5-1.38,1-.11,1.5,.64,1.76,1.4,.7,1.92,.98,3.96,.84,6Z"/>
  <path class="cls-2" d="M59.06,380.78c.68-.6,1-1.6,2.09-1.94-.37,.93-1.15,1.64-2.12,1.91l.03,.03Z"/>
  <path class="cls-2" d="M48.18,379.78c-.19,.12-.39,.23-.6,.33-.35,.14-.59-.08-.53-.38,.09-.26,.27-.49,.52-.62,.41-.25,.41,.09,.61,.67Z"/>
  <path class="cls-2" d="M53.54,380.12l-.57,.66h0l.61-.61-.04-.05Z"/>
  <path class="cls-2" d="M66.38,379.5l-.22,.32v-.17c.07-.04,.14-.08,.22-.11v-.04Z"/>
  <path class="cls-2" d="M54.15,379.51l-.61,.61h0c-.02-.32,.23-.59,.55-.61,.02,0,.04,0,.06,0Z"/>
  <path class="cls-2" d="M66.96,378.9c.01,.32-.24,.59-.56,.6-.02,0-.03,0-.05,0h0l.61-.61h0Z"/>
  <path class="cls-2" d="M54.19,379.55l.22-.32v.17c-.07,.05-.15,.09-.23,.11v.04Z"/>
  <path class="cls-2" d="M67.61,378.28l-.62,.62h0l.63-.62h0Z"/>
  <path class="cls-2" d="M78.96,362.99c-.15,.14-.34,.44-.56,.46s-.46-.28-.34-.59c.05-.18,.17-.33,.33-.43,.43-.15,.57,.13,.57,.56Z"/>
  <path class="cls-2" d="M76.05,360.14c-.23-.11-.46-.23-.68-.36,.01-.15,.08-.28,.18-.39,.45-.2,.65,.06,.73,.47-.08,.09-.16,.18-.23,.28Z"/>
  <path class="cls-2" d="M95.81,363c0,.92,.07,2.11-1,2-1.47-.15-.87-1.59-.91-2.5,0-.71-.36-2,.81-1.89s1,1.54,1.1,2.39Z"/>
</svg>